<svg width="62" height="75" viewBox="0 0 62 75" fill="none" xmlns="http://www.w3.org/2000/svg">
<g clip-path="url(#clip0_3150_12073)">
<path d="M1.61719 5.63696H60.4562V15.174H1.61719V5.63696Z" fill="#00B2CA"/>
<path d="M4.24609 15.174H57.8261V51.602H4.24609V15.174Z" fill="#00B2CA" fill-opacity="0.2"/>
<path d="M28.418 51.606H35.818V72.956H28.418V51.606Z" fill="#B3B0B5"/>
<path d="M26.2578 1.46997H35.8178V9.24097H26.2578V1.46997Z" fill="#F9F9F9"/>
<path d="M9.49219 1.46997H19.0532V9.24097H9.49219V1.46997Z" fill="#F9F9F9"/>
<path d="M43.1328 1.46997H52.6938V9.24097H43.1328V1.46997Z" fill="#F9F9F9"/>
<path d="M14.2695 24.804V21.026H47.9095V44.251H14.2695V36.634" fill="#FA6E53"/>
<path d="M43.1 74.424C43.48 74.41 43.8397 74.2492 44.1035 73.9754C44.3674 73.7016 44.5148 73.3362 44.5148 72.956C44.5148 72.5758 44.3674 72.2104 44.1035 71.9366C43.8397 71.6628 43.48 71.502 43.1 71.488H37.135V60.549H51.778C52.158 60.535 52.5177 60.3742 52.7815 60.1004C53.0454 59.8266 53.1928 59.4612 53.1928 59.081C53.1928 58.7008 53.0454 58.3354 52.7815 58.0616C52.5177 57.7878 52.158 57.627 51.778 57.613H46.5V53.07H57.677C57.8699 53.07 58.061 53.032 58.2392 52.9581C58.4175 52.8842 58.5794 52.7759 58.7157 52.6393C58.8521 52.5028 58.9602 52.3407 59.0338 52.1624C59.1075 51.9841 59.1453 51.7929 59.145 51.6V16.642H60.306C60.6953 16.642 61.0687 16.4873 61.344 16.212C61.6193 15.9367 61.774 15.5633 61.774 15.174V5.637C61.7737 5.24775 61.619 4.87451 61.3437 4.59926C61.0685 4.32402 60.6953 4.16927 60.306 4.169H54.006V1.469C54.0063 1.08036 53.8524 0.707464 53.5782 0.432088C53.3039 0.156712 52.9316 0.0013267 52.543 3.06567e-06H42.983C42.5937 3.06567e-06 42.2203 0.154667 41.945 0.42997C41.6697 0.705274 41.515 1.07867 41.515 1.468V4.168H37.135V1.468C37.135 1.07867 36.9803 0.705274 36.705 0.42997C36.4297 0.154667 36.0563 3.06567e-06 35.667 3.06567e-06H26.106C25.7167 3.06567e-06 25.3433 0.154667 25.068 0.42997C24.7927 0.705274 24.638 1.07867 24.638 1.468V4.168H20.371V1.468C20.371 1.27497 20.3329 1.08383 20.259 0.90553C20.185 0.727228 20.0766 0.565264 19.94 0.428908C19.8033 0.292553 19.6412 0.184483 19.4627 0.110886C19.2842 0.0372884 19.093 -0.000391416 18.9 3.06567e-06H9.343C9.15014 -0.000128314 8.95914 0.0377457 8.78091 0.111461C8.60269 0.185176 8.44074 0.293287 8.30432 0.429617C8.1679 0.565946 8.05968 0.727822 7.98584 0.905993C7.912 1.08416 7.874 1.27514 7.874 1.468V4.168H1.467C1.27422 4.16813 1.08335 4.20623 0.905297 4.28013C0.727241 4.35403 0.565484 4.46227 0.42926 4.59868C0.293037 4.73509 0.185015 4.89699 0.111362 5.07515C0.0377098 5.2533 -0.000131026 5.44422 3.40863e-07 5.637V15.174C3.40863e-07 15.5633 0.154664 15.9367 0.429968 16.212C0.705271 16.4873 1.07866 16.642 1.468 16.642H2.628V51.6C2.62774 51.7933 2.66565 51.9847 2.73955 52.1633C2.81346 52.3419 2.92191 52.5042 3.05867 52.6407C3.19544 52.7773 3.35783 52.8856 3.53653 52.9592C3.71523 53.0329 3.90672 53.0705 4.1 53.07H17.435V57.613H4.1C3.72004 57.627 3.36032 57.7878 3.09647 58.0616C2.83262 58.3354 2.68519 58.7008 2.68519 59.081C2.68519 59.4612 2.83262 59.8266 3.09647 60.1004C3.36032 60.3742 3.72004 60.535 4.1 60.549H26.8V71.488H20.833C20.453 71.502 20.0933 71.6628 19.8295 71.9366C19.5656 72.2104 19.4182 72.5758 19.4182 72.956C19.4182 73.3362 19.5656 73.7016 19.8295 73.9754C20.0933 74.2492 20.453 74.41 20.833 74.424H43.1ZM44.45 2.935H51.075V7.77H44.45V2.935ZM27.574 2.935H34.2V7.77H27.574V2.935ZM10.81 2.935H17.435V7.77H10.811L10.81 2.935ZM2.935 13.706V7.1H7.875V9.238C7.875 9.43078 7.91297 9.62168 7.98675 9.79978C8.06052 9.97789 8.16865 10.1397 8.30497 10.276C8.44128 10.4124 8.60311 10.5205 8.78122 10.5943C8.95933 10.668 9.15022 10.706 9.343 10.706H18.9C19.2893 10.706 19.6627 10.5513 19.938 10.276C20.2133 10.0007 20.368 9.62734 20.368 9.238V7.1H24.636V9.238C24.636 9.62734 24.7907 10.0007 25.066 10.276C25.3413 10.5513 25.7147 10.706 26.104 10.706H35.664C35.8568 10.706 36.0477 10.668 36.2258 10.5943C36.4039 10.5205 36.5657 10.4124 36.702 10.276C36.8384 10.1397 36.9465 9.97789 37.0203 9.79978C37.094 9.62168 37.132 9.43078 37.132 9.238V7.1H41.511V9.238C41.511 9.62734 41.6657 10.0007 41.941 10.276C42.2163 10.5513 42.5897 10.706 42.979 10.706H52.54C52.9293 10.706 53.3027 10.5513 53.578 10.276C53.8533 10.0007 54.008 9.62734 54.008 9.238V7.1H58.836V13.7L2.935 13.706ZM20.371 57.613V53.07H26.8V57.613H20.371ZM34.2 71.489H29.74V53.07H34.2V71.489ZM43.564 57.613H37.135V53.07H43.563L43.564 57.613ZM5.564 50.134V16.642H56.209V50.134H5.564Z" fill="black"/>
<path d="M14.1243 26.272C14.5134 26.2725 14.8869 26.1185 15.1625 25.8438C15.4382 25.5691 15.5935 25.1962 15.5943 24.807V22.497H46.2943V42.786H15.5943V36.637C15.5802 36.257 15.4194 35.8973 15.1457 35.6335C14.8719 35.3696 14.5065 35.2222 14.1263 35.2222C13.746 35.2222 13.3806 35.3696 13.1069 35.6335C12.8331 35.8973 12.6723 36.257 12.6583 36.637V44.254C12.6583 44.6433 12.8129 45.0167 13.0882 45.292C13.3635 45.5673 13.7369 45.722 14.1263 45.722H47.7663C48.1556 45.722 48.529 45.5673 48.8043 45.292C49.0796 45.0167 49.2343 44.6433 49.2343 44.254V21.025C49.2343 20.6357 49.0796 20.2623 48.8043 19.987C48.529 19.7117 48.1556 19.557 47.7663 19.557H14.1243C13.7349 19.557 13.3615 19.7117 13.0862 19.987C12.8109 20.2623 12.6562 20.6357 12.6562 21.025V24.807C12.6563 25.1963 12.8109 25.5697 13.0862 25.845C13.3615 26.1203 13.7349 26.275 14.1243 26.275V26.272Z" fill="black"/>
<path d="M23.2131 38.109C23.3903 38.0904 23.5599 38.027 23.706 37.9249C23.852 37.8227 23.9697 37.6851 24.048 37.525C24.137 37.365 24.5141 35.725 24.5321 35.725H27.8L28.327 37.675C28.6 38.675 30.88 37.95 30.635 36.957L27.7351 27.443C27.3761 26.316 24.9351 26.316 24.5751 27.443C23.7084 30.303 22.8417 33.163 21.975 36.023C21.757 36.743 21.375 37.461 22.288 37.905C22.572 38.0561 22.8919 38.1267 23.2131 38.109ZM26.158 29.673L27.2891 33.853H25.027L26.158 29.673Z" fill="black"/>
<path d="M33.3929 38.1261H36.1349C37.1366 38.1773 38.1226 37.8612 38.9079 37.237C39.3025 36.814 39.5998 36.3099 39.7791 35.7599C39.9584 35.2099 40.0153 34.6273 39.9458 34.053C39.9685 33.0037 39.9715 31.9541 39.9548 30.9041C40.014 30.0918 39.8747 29.2774 39.5488 28.5311C39.2005 27.9455 38.6977 27.4672 38.0955 27.1486C37.4932 26.83 36.8149 26.6835 36.1349 26.7251H33.3929C32.9709 26.7251 32.3398 26.9331 32.3398 27.4581V37.393C32.3398 37.918 32.9709 38.1261 33.3929 38.1261ZM34.7558 28.8461C36.0258 28.8461 37.5289 28.6701 37.5289 30.4061V34.4451C37.5289 36.1771 36.0288 36.005 34.7558 36.005V28.8461Z" fill="black"/>
<path d="M12.7668 31.2469C12.8774 31.515 13.065 31.7443 13.3058 31.9058C13.5467 32.0673 13.83 32.1539 14.12 32.1545C14.41 32.155 14.6936 32.0697 14.9351 31.9091C15.1766 31.7486 15.3651 31.5201 15.4768 31.2524C15.5885 30.9848 15.6183 30.6901 15.5626 30.4055C15.5069 30.1209 15.368 29.8593 15.1637 29.6535C14.9593 29.4478 14.6985 29.3073 14.4143 29.2497C14.1301 29.1921 13.8352 29.22 13.5668 29.33C13.2087 29.4806 12.9241 29.7661 12.7744 30.1247C12.6247 30.4833 12.622 30.8864 12.7668 31.2469Z" fill="black"/>
<path d="M57.3935 57.642C57.0927 57.7015 56.8181 57.8537 56.6083 58.0773C56.3984 58.3008 56.2639 58.5845 56.2237 58.8885C56.1834 59.1924 56.2394 59.5014 56.3837 59.7719C56.5281 60.0424 56.7535 60.2608 57.0285 60.3966C57.3034 60.5323 57.6139 60.5785 57.9165 60.5287C58.219 60.4788 58.4983 60.3354 58.7151 60.1186C58.932 59.9019 59.0754 59.6226 59.1254 59.3201C59.1753 59.0176 59.1292 58.707 58.9935 58.432C58.8488 58.1444 58.6144 57.9118 58.3257 57.7692C58.0371 57.6267 57.7098 57.5821 57.3935 57.642Z" fill="black"/>
</g>
<defs>
<clipPath id="clip0_3150_12073">
<rect width="61.775" height="74.424" fill="white"/>
</clipPath>
</defs>
</svg>
