<svg width="195" height="33" viewBox="0 0 195 33" fill="none" xmlns="http://www.w3.org/2000/svg">
<path d="M101.124 14.5844H95.9099C94.7125 14.5844 93.7451 15.5607 93.7451 16.7583C93.7451 17.9559 94.7212 18.9279 95.9186 18.9279H101.129C102.326 18.9279 103.298 17.9516 103.298 16.754C103.298 15.5563 102.326 14.5844 101.129 14.5844H101.124Z" fill="black"/>
<path d="M148.012 14.4498H147.995C146.273 14.4628 144.538 14.4759 142.789 14.4845C141.592 14.4932 140.624 15.4696 140.633 16.6672C140.642 17.8605 141.609 18.8238 142.802 18.8238H142.815C144.564 18.8151 146.303 18.8021 148.025 18.7891C149.223 18.7804 150.186 17.7997 150.177 16.6021C150.169 15.4088 149.201 14.4498 148.008 14.4498H148.012Z" fill="black"/>
<path d="M38.6276 14.823H38.6016C36.8446 14.8447 35.105 14.8664 33.387 14.8881C32.1897 14.9054 31.2309 15.8905 31.2483 17.0881C31.2656 18.277 32.2331 19.2273 33.4174 19.2273C33.4261 19.2273 33.4391 19.2273 33.4478 19.2273C35.1614 19.2056 36.8967 19.1796 38.6537 19.1622C39.851 19.1492 40.8098 18.1642 40.7968 16.9666C40.7837 15.7776 39.8163 14.823 38.6276 14.823Z" fill="black"/>
<path d="M163.643 14.2849H163.613C161.899 14.3066 160.164 14.3326 158.407 14.35C157.21 14.363 156.251 15.348 156.264 16.5457C156.277 17.7346 157.244 18.6892 158.433 18.6892H158.459C160.216 18.6676 161.956 18.6459 163.674 18.6242C164.871 18.6068 165.83 17.6218 165.812 16.4242C165.795 15.2352 164.827 14.2849 163.643 14.2849Z" fill="black"/>
<path d="M22.9535 15.0703C21.1835 15.105 19.4439 15.1441 17.7389 15.1875C16.5416 15.2178 15.5958 16.2115 15.6219 17.4092C15.6522 18.5894 16.6153 19.5267 17.791 19.5267C17.8083 19.5267 17.8257 19.5267 17.843 19.5267C19.5436 19.4833 21.2789 19.4443 23.0446 19.4096C24.242 19.3835 25.192 18.3942 25.166 17.1965C25.14 15.9989 24.1509 15.0356 22.9535 15.0747V15.0703Z" fill="black"/>
<path d="M69.8804 14.6234H69.8761C68.1321 14.6278 66.3925 14.6321 64.6658 14.6408C63.4685 14.6408 62.501 15.6214 62.5054 16.8191C62.5054 18.0124 63.4815 18.98 64.6745 18.98H64.6832C66.4098 18.9757 68.1451 18.967 69.8891 18.9627C71.0865 18.9627 72.0539 17.9863 72.0539 16.7887C72.0539 15.5911 71.0821 14.6234 69.8848 14.6234H69.8804Z" fill="black"/>
<path d="M116.755 14.5713H111.545C110.348 14.58 109.376 15.552 109.376 16.7496C109.376 17.9472 110.348 18.9192 111.545 18.9192H116.755C117.953 18.9105 118.924 17.9385 118.92 16.7409C118.92 15.5433 117.948 14.5756 116.751 14.5756L116.755 14.5713Z" fill="black"/>
<path d="M54.254 14.6885H54.241C52.4883 14.6972 50.753 14.7102 49.0307 14.7232C47.8334 14.7319 46.8703 15.7125 46.879 16.9102C46.8876 18.1035 47.8594 19.0624 49.0481 19.0624H49.0654C50.7877 19.0494 52.523 19.0364 54.2713 19.0277C55.4687 19.019 56.4361 18.0427 56.4275 16.8451C56.4188 15.6518 55.4513 14.6885 54.2583 14.6885H54.254Z" fill="black"/>
<path d="M7.29683 15.5C5.50513 15.5651 3.76115 15.6345 2.07357 15.7082C0.876216 15.7603 -0.0521696 16.7757 -0.000110611 17.969C0.0519484 19.1319 1.0107 20.0432 2.16468 20.0432C2.19504 20.0432 2.22975 20.0432 2.26012 20.0432C3.93902 19.9694 5.66998 19.9 7.44866 19.8392C8.64602 19.7958 9.58308 18.7891 9.5397 17.5915C9.49632 16.3938 8.49852 15.4609 7.29249 15.5H7.29683Z" fill="black"/>
<path d="M85.4982 14.5974H80.2966C79.0993 14.606 78.1275 15.578 78.1319 16.7757C78.1319 17.9733 79.1036 18.9409 80.301 18.9409H85.4982C86.6956 18.9323 87.6673 17.9603 87.6673 16.7626C87.6673 15.565 86.6956 14.593 85.4982 14.593V14.5974Z" fill="black"/>
<path d="M132.386 14.5366H132.377L127.171 14.554C125.974 14.554 125.007 15.5303 125.007 16.7279C125.007 17.9256 125.978 18.8932 127.176 18.8932H127.18L132.39 18.8759C133.588 18.8759 134.555 17.8952 134.551 16.6976C134.551 15.5043 133.575 14.5366 132.382 14.5366H132.386Z" fill="black"/>
<path d="M171.313 16.3287L165.821 33.0045C173.205 26.1788 185.248 19.5832 194.996 15.6431C185.039 12.2759 172.636 6.39184 164.866 0.00012207L171.313 16.3287Z" fill="black"/>
</svg>
