<svg width="267" height="117" viewBox="0 0 267 117" fill="none" xmlns="http://www.w3.org/2000/svg">
<g filter="url(#filter0_d_400_4451)">
<rect x="16" y="11" width="235" height="85" rx="8" fill="white" shape-rendering="crispEdges"/>
<g clip-path="url(#clip0_400_4451)">
<path d="M55.5299 52.3779L35.6003 73.5699C35.906 74.7091 36.5825 75.714 37.5231 76.4257C38.4636 77.1374 39.6146 77.5154 40.7939 77.4999C41.7287 77.5018 42.6477 77.2598 43.4603 76.7979L65.9159 63.8859L55.5299 52.3779Z" fill="#EB3131"/>
<path d="M75.7405 48.7288L66.0565 43.1152L55.1089 52.7992L66.0565 63.7468L75.7405 58.1332C76.6049 57.6763 77.3252 56.988 77.8208 56.1452C78.3165 55.3024 78.568 54.3384 78.5473 53.3608C78.5307 52.4095 78.2622 51.4796 77.7692 50.6659C77.2761 49.8522 76.5761 49.1838 75.7405 48.7288Z" fill="#F6B60B"/>
<path d="M35.6005 33.4277C35.4772 33.8849 35.4297 34.3592 35.4601 34.8317V72.1673C35.437 72.6397 35.4843 73.1129 35.6005 73.5713L56.2321 52.9397L35.6005 33.4277Z" fill="#5778C5"/>
<path d="M55.674 53.4998L65.9196 43.2542L43.4604 30.203C42.5908 29.7574 41.6305 29.5172 40.6536 29.501C39.4747 29.4853 38.3241 29.8627 37.3836 30.5738C36.4431 31.2848 35.7663 32.2888 35.46 33.4274L55.674 53.4998Z" fill="#3BAD49"/>
</g>
<path opacity="0.66" d="M98.1591 43V31.48H101.711C101.828 31.48 102.034 31.4827 102.327 31.488C102.62 31.4933 102.9 31.5147 103.167 31.552C104.058 31.6693 104.802 31.9947 105.399 32.528C106.002 33.056 106.455 33.728 106.759 34.544C107.063 35.36 107.215 36.2587 107.215 37.24C107.215 38.2213 107.063 39.12 106.759 39.936C106.455 40.752 106.002 41.4267 105.399 41.96C104.802 42.488 104.058 42.8107 103.167 42.928C102.9 42.96 102.618 42.9813 102.319 42.992C102.026 42.9973 101.823 43 101.711 43H98.1591ZM99.6231 41.64H101.711C101.914 41.64 102.14 41.6347 102.391 41.624C102.642 41.608 102.86 41.584 103.047 41.552C103.676 41.4347 104.186 41.1707 104.575 40.76C104.964 40.3493 105.25 39.8373 105.431 39.224C105.612 38.6107 105.703 37.9493 105.703 37.24C105.703 36.5147 105.61 35.8453 105.423 35.232C105.242 34.6187 104.956 34.1093 104.567 33.704C104.178 33.2987 103.671 33.04 103.047 32.928C102.86 32.8907 102.639 32.8667 102.383 32.856C102.127 32.8453 101.903 32.84 101.711 32.84H99.6231V41.64ZM112.73 43.24C111.871 43.24 111.13 43.0453 110.506 42.656C109.887 42.2667 109.41 41.728 109.074 41.04C108.738 40.352 108.57 39.5627 108.57 38.672C108.57 37.7653 108.74 36.9707 109.082 36.288C109.423 35.6053 109.906 35.0747 110.53 34.696C111.154 34.312 111.887 34.12 112.73 34.12C113.594 34.12 114.338 34.3147 114.962 34.704C115.586 35.088 116.063 35.624 116.394 36.312C116.73 36.9947 116.898 37.7813 116.898 38.672C116.898 39.5733 116.73 40.368 116.394 41.056C116.058 41.7387 115.578 42.2747 114.954 42.664C114.33 43.048 113.588 43.24 112.73 43.24ZM112.73 41.888C113.626 41.888 114.292 41.5893 114.73 40.992C115.167 40.3947 115.386 39.6213 115.386 38.672C115.386 37.696 115.164 36.92 114.722 36.344C114.279 35.7627 113.615 35.472 112.73 35.472C112.127 35.472 111.631 35.608 111.242 35.88C110.852 36.152 110.562 36.528 110.37 37.008C110.178 37.488 110.082 38.0427 110.082 38.672C110.082 39.6427 110.306 40.4213 110.754 41.008C111.202 41.5947 111.86 41.888 112.73 41.888ZM120.187 43L117.547 34.352L118.963 34.36L120.891 40.68L122.835 34.36H124.091L126.027 40.68L127.963 34.36H129.371L126.731 43H125.547L123.459 36.432L121.371 43H120.187ZM136.967 43V38.672C136.967 38.2613 136.93 37.8667 136.855 37.488C136.786 37.1093 136.661 36.7707 136.479 36.472C136.303 36.168 136.063 35.928 135.759 35.752C135.461 35.576 135.082 35.488 134.623 35.488C134.266 35.488 133.941 35.5493 133.647 35.672C133.359 35.7893 133.111 35.9707 132.903 36.216C132.695 36.4613 132.533 36.7707 132.415 37.144C132.303 37.512 132.247 37.9467 132.247 38.448L131.311 38.16C131.311 37.3227 131.461 36.6053 131.759 36.008C132.063 35.4053 132.487 34.944 133.031 34.624C133.581 34.2987 134.226 34.136 134.967 34.136C135.527 34.136 136.005 34.224 136.399 34.4C136.794 34.576 137.122 34.8107 137.383 35.104C137.645 35.392 137.85 35.7173 137.999 36.08C138.149 36.4373 138.253 36.8027 138.311 37.176C138.375 37.544 138.407 37.8933 138.407 38.224V43H136.967ZM130.807 43V34.36H132.087V36.672H132.247V43H130.807ZM140.647 43V31.24H142.071V43H140.647ZM148.152 43.24C147.293 43.24 146.552 43.0453 145.928 42.656C145.309 42.2667 144.832 41.728 144.496 41.04C144.16 40.352 143.992 39.5627 143.992 38.672C143.992 37.7653 144.162 36.9707 144.504 36.288C144.845 35.6053 145.328 35.0747 145.952 34.696C146.576 34.312 147.309 34.12 148.152 34.12C149.016 34.12 149.76 34.3147 150.384 34.704C151.008 35.088 151.485 35.624 151.816 36.312C152.152 36.9947 152.32 37.7813 152.32 38.672C152.32 39.5733 152.152 40.368 151.816 41.056C151.48 41.7387 151 42.2747 150.376 42.664C149.752 43.048 149.01 43.24 148.152 43.24ZM148.152 41.888C149.048 41.888 149.714 41.5893 150.152 40.992C150.589 40.3947 150.808 39.6213 150.808 38.672C150.808 37.696 150.586 36.92 150.144 36.344C149.701 35.7627 149.037 35.472 148.152 35.472C147.549 35.472 147.053 35.608 146.664 35.88C146.274 36.152 145.984 36.528 145.792 37.008C145.6 37.488 145.504 38.0427 145.504 38.672C145.504 39.6427 145.728 40.4213 146.176 41.008C146.624 41.5947 147.282 41.888 148.152 41.888ZM156.537 43.24C155.892 43.24 155.35 43.1227 154.913 42.888C154.481 42.648 154.153 42.3333 153.929 41.944C153.71 41.5547 153.601 41.128 153.601 40.664C153.601 40.2107 153.686 39.8187 153.857 39.488C154.033 39.152 154.278 38.8747 154.593 38.656C154.908 38.432 155.284 38.256 155.721 38.128C156.132 38.016 156.59 37.92 157.097 37.84C157.609 37.7547 158.126 37.6773 158.649 37.608C159.172 37.5387 159.66 37.472 160.113 37.408L159.601 37.704C159.617 36.936 159.462 36.368 159.137 36C158.817 35.632 158.262 35.448 157.473 35.448C156.95 35.448 156.492 35.568 156.097 35.808C155.708 36.0427 155.433 36.4267 155.273 36.96L153.921 36.552C154.129 35.7947 154.532 35.2 155.129 34.768C155.726 34.336 156.513 34.12 157.489 34.12C158.273 34.12 158.945 34.2613 159.505 34.544C160.07 34.8213 160.476 35.2427 160.721 35.808C160.844 36.0747 160.921 36.3653 160.953 36.68C160.985 36.9893 161.001 37.3147 161.001 37.656V43H159.737V40.928L160.033 41.12C159.708 41.8187 159.252 42.3467 158.665 42.704C158.084 43.0613 157.374 43.24 156.537 43.24ZM156.753 42.048C157.265 42.048 157.708 41.9573 158.081 41.776C158.46 41.5893 158.764 41.3467 158.993 41.048C159.222 40.744 159.372 40.4133 159.441 40.056C159.521 39.7893 159.564 39.4933 159.569 39.168C159.58 38.8373 159.585 38.584 159.585 38.408L160.081 38.624C159.617 38.688 159.161 38.7493 158.713 38.808C158.265 38.8667 157.841 38.9307 157.441 39C157.041 39.064 156.681 39.1413 156.361 39.232C156.126 39.3067 155.905 39.4027 155.697 39.52C155.494 39.6373 155.329 39.7893 155.201 39.976C155.078 40.1573 155.017 40.384 155.017 40.656C155.017 40.8907 155.076 41.1147 155.193 41.328C155.316 41.5413 155.502 41.7147 155.753 41.848C156.009 41.9813 156.342 42.048 156.753 42.048ZM166.473 43.24C165.668 43.24 164.977 43.04 164.401 42.64C163.825 42.2347 163.38 41.688 163.065 41C162.756 40.312 162.601 39.536 162.601 38.672C162.601 37.808 162.756 37.032 163.065 36.344C163.38 35.656 163.825 35.1147 164.401 34.72C164.977 34.32 165.665 34.12 166.465 34.12C167.281 34.12 167.966 34.3173 168.521 34.712C169.076 35.1067 169.494 35.648 169.777 36.336C170.065 37.024 170.209 37.8027 170.209 38.672C170.209 39.5307 170.065 40.3067 169.777 41C169.494 41.688 169.076 42.2347 168.521 42.64C167.966 43.04 167.284 43.24 166.473 43.24ZM166.649 41.936C167.23 41.936 167.708 41.7973 168.081 41.52C168.454 41.2373 168.729 40.8507 168.905 40.36C169.086 39.864 169.177 39.3013 169.177 38.672C169.177 38.032 169.086 37.4693 168.905 36.984C168.729 36.4933 168.457 36.112 168.089 35.84C167.721 35.5627 167.254 35.424 166.689 35.424C166.102 35.424 165.617 35.568 165.233 35.856C164.854 36.144 164.572 36.5333 164.385 37.024C164.204 37.5147 164.113 38.064 164.113 38.672C164.113 39.2853 164.206 39.84 164.393 40.336C164.58 40.8267 164.86 41.216 165.233 41.504C165.612 41.792 166.084 41.936 166.649 41.936ZM169.177 43V36.64H169.017V31.48H170.449V43H169.177ZM179.573 43.24C178.715 43.24 177.973 43.0453 177.349 42.656C176.731 42.2667 176.253 41.728 175.917 41.04C175.581 40.352 175.413 39.5627 175.413 38.672C175.413 37.7653 175.584 36.9707 175.925 36.288C176.267 35.6053 176.749 35.0747 177.373 34.696C177.997 34.312 178.731 34.12 179.573 34.12C180.437 34.12 181.181 34.3147 181.805 34.704C182.429 35.088 182.907 35.624 183.237 36.312C183.573 36.9947 183.741 37.7813 183.741 38.672C183.741 39.5733 183.573 40.368 183.237 41.056C182.901 41.7387 182.421 42.2747 181.797 42.664C181.173 43.048 180.432 43.24 179.573 43.24ZM179.573 41.888C180.469 41.888 181.136 41.5893 181.573 40.992C182.011 40.3947 182.229 39.6213 182.229 38.672C182.229 37.696 182.008 36.92 181.565 36.344C181.123 35.7627 180.459 35.472 179.573 35.472C178.971 35.472 178.475 35.608 178.085 35.88C177.696 36.152 177.405 36.528 177.213 37.008C177.021 37.488 176.925 38.0427 176.925 38.672C176.925 39.6427 177.149 40.4213 177.597 41.008C178.045 41.5947 178.704 41.888 179.573 41.888ZM191.655 43V38.672C191.655 38.2613 191.617 37.8667 191.543 37.488C191.473 37.1093 191.348 36.7707 191.167 36.472C190.991 36.168 190.751 35.928 190.447 35.752C190.148 35.576 189.769 35.488 189.311 35.488C188.953 35.488 188.628 35.5493 188.335 35.672C188.047 35.7893 187.799 35.9707 187.591 36.216C187.383 36.4613 187.22 36.7707 187.103 37.144C186.991 37.512 186.935 37.9467 186.935 38.448L185.999 38.16C185.999 37.3227 186.148 36.6053 186.447 36.008C186.751 35.4053 187.175 34.944 187.719 34.624C188.268 34.2987 188.913 34.136 189.655 34.136C190.215 34.136 190.692 34.224 191.087 34.4C191.481 34.576 191.809 34.8107 192.071 35.104C192.332 35.392 192.537 35.7173 192.687 36.08C192.836 36.4373 192.94 36.8027 192.999 37.176C193.063 37.544 193.095 37.8933 193.095 38.224V43H191.655ZM185.495 43V34.36H186.775V36.672H186.935V43H185.495ZM203.202 43C202.69 43.1013 202.183 43.1413 201.682 43.12C201.186 43.104 200.743 43.0053 200.354 42.824C199.964 42.6373 199.668 42.3493 199.466 41.96C199.295 41.6187 199.202 41.2747 199.186 40.928C199.175 40.576 199.17 40.1787 199.17 39.736V31.96H200.594V39.672C200.594 40.024 200.596 40.3253 200.602 40.576C200.612 40.8267 200.668 41.0427 200.77 41.224C200.962 41.5653 201.266 41.7653 201.682 41.824C202.103 41.8827 202.61 41.8667 203.202 41.776V43ZM197.418 35.536V34.36H203.202V35.536H197.418ZM211.108 43V38.672C211.108 38.2613 211.071 37.8667 210.996 37.488C210.927 37.1093 210.801 36.7707 210.62 36.472C210.444 36.168 210.204 35.928 209.9 35.752C209.601 35.576 209.223 35.488 208.764 35.488C208.407 35.488 208.081 35.5493 207.788 35.672C207.5 35.7893 207.252 35.9707 207.044 36.216C206.836 36.4613 206.673 36.7707 206.556 37.144C206.444 37.512 206.388 37.9467 206.388 38.448L205.452 38.16C205.452 37.3227 205.601 36.6053 205.9 36.008C206.204 35.4053 206.628 34.944 207.172 34.624C207.721 34.2987 208.367 34.136 209.108 34.136C209.668 34.136 210.145 34.224 210.54 34.4C210.935 34.576 211.263 34.8107 211.524 35.104C211.785 35.392 211.991 35.7173 212.14 36.08C212.289 36.4373 212.393 36.8027 212.452 37.176C212.516 37.544 212.548 37.8933 212.548 38.224V43H211.108ZM204.948 43V31.48H206.228V37.84H206.388V43H204.948ZM218.372 43.24C217.524 43.24 216.782 43.0533 216.148 42.68C215.518 42.3013 215.028 41.776 214.676 41.104C214.324 40.4267 214.148 39.6373 214.148 38.736C214.148 37.792 214.321 36.976 214.668 36.288C215.014 35.5947 215.497 35.0613 216.116 34.688C216.74 34.3093 217.47 34.12 218.308 34.12C219.177 34.12 219.916 34.32 220.524 34.72C221.137 35.12 221.596 35.6907 221.9 36.432C222.209 37.1733 222.342 38.056 222.3 39.08H220.86V38.568C220.844 37.5067 220.628 36.7147 220.212 36.192C219.796 35.664 219.177 35.4 218.356 35.4C217.476 35.4 216.806 35.6827 216.348 36.248C215.889 36.8133 215.66 37.624 215.66 38.68C215.66 39.6987 215.889 40.488 216.348 41.048C216.806 41.608 217.46 41.888 218.308 41.888C218.878 41.888 219.374 41.7573 219.796 41.496C220.217 41.2347 220.548 40.8587 220.788 40.368L222.156 40.84C221.82 41.6027 221.313 42.1947 220.636 42.616C219.964 43.032 219.209 43.24 218.372 43.24ZM215.18 39.08V37.936H221.564V39.08H215.18Z" fill="black"/>
<path d="M106.011 75.36C104.891 75.36 103.839 75.164 102.855 74.772C101.879 74.372 101.019 73.788 100.275 73.02C99.5391 72.252 98.9631 71.312 98.5471 70.2C98.1311 69.08 97.9231 67.8 97.9231 66.36C97.9231 64.472 98.2751 62.86 98.9791 61.524C99.6831 60.18 100.647 59.152 101.871 58.44C103.095 57.72 104.475 57.36 106.011 57.36C108.139 57.36 109.823 57.856 111.063 58.848C112.311 59.832 113.155 61.216 113.595 63L110.643 63.468C110.315 62.444 109.779 61.628 109.035 61.02C108.291 60.404 107.343 60.096 106.191 60.096C105.031 60.08 104.067 60.332 103.299 60.852C102.531 61.372 101.951 62.104 101.559 63.048C101.175 63.992 100.983 65.096 100.983 66.36C100.983 67.624 101.175 68.724 101.559 69.66C101.943 70.588 102.519 71.312 103.287 71.832C104.063 72.352 105.031 72.62 106.191 72.636C107.063 72.644 107.827 72.488 108.483 72.168C109.139 71.84 109.675 71.348 110.091 70.692C110.507 70.028 110.787 69.2 110.931 68.208H107.883V65.94H114.003C114.019 66.068 114.031 66.256 114.039 66.504C114.047 66.752 114.051 66.9 114.051 66.948C114.051 68.58 113.727 70.032 113.079 71.304C112.439 72.568 111.519 73.56 110.319 74.28C109.119 75 107.683 75.36 106.011 75.36ZM122.185 75.36C120.889 75.36 119.757 75.068 118.789 74.484C117.821 73.9 117.069 73.096 116.533 72.072C116.005 71.04 115.741 69.856 115.741 68.52C115.741 67.16 116.013 65.968 116.557 64.944C117.101 63.92 117.857 63.12 118.825 62.544C119.793 61.968 120.913 61.68 122.185 61.68C123.489 61.68 124.625 61.972 125.593 62.556C126.561 63.14 127.313 63.948 127.849 64.98C128.385 66.004 128.653 67.184 128.653 68.52C128.653 69.864 128.381 71.052 127.837 72.084C127.301 73.108 126.549 73.912 125.581 74.496C124.613 75.072 123.481 75.36 122.185 75.36ZM122.185 72.648C123.337 72.648 124.193 72.264 124.753 71.496C125.313 70.728 125.593 69.736 125.593 68.52C125.593 67.264 125.309 66.264 124.741 65.52C124.173 64.768 123.321 64.392 122.185 64.392C121.409 64.392 120.769 64.568 120.265 64.92C119.769 65.264 119.401 65.748 119.161 66.372C118.921 66.988 118.801 67.704 118.801 68.52C118.801 69.776 119.085 70.78 119.653 71.532C120.229 72.276 121.073 72.648 122.185 72.648ZM137.021 75.36C135.725 75.36 134.593 75.068 133.625 74.484C132.657 73.9 131.905 73.096 131.369 72.072C130.841 71.04 130.577 69.856 130.577 68.52C130.577 67.16 130.849 65.968 131.393 64.944C131.937 63.92 132.693 63.12 133.661 62.544C134.629 61.968 135.749 61.68 137.021 61.68C138.325 61.68 139.461 61.972 140.429 62.556C141.397 63.14 142.149 63.948 142.685 64.98C143.221 66.004 143.489 67.184 143.489 68.52C143.489 69.864 143.217 71.052 142.673 72.084C142.137 73.108 141.385 73.912 140.417 74.496C139.449 75.072 138.317 75.36 137.021 75.36ZM137.021 72.648C138.173 72.648 139.029 72.264 139.589 71.496C140.149 70.728 140.429 69.736 140.429 68.52C140.429 67.264 140.145 66.264 139.577 65.52C139.009 64.768 138.157 64.392 137.021 64.392C136.245 64.392 135.605 64.568 135.101 64.92C134.605 65.264 134.237 65.748 133.997 66.372C133.757 66.988 133.637 67.704 133.637 68.52C133.637 69.776 133.921 70.78 134.489 71.532C135.065 72.276 135.909 72.648 137.021 72.648ZM151.581 81.12C150.861 81.12 150.169 81.008 149.505 80.784C148.849 80.56 148.257 80.236 147.729 79.812C147.201 79.396 146.769 78.892 146.433 78.3L149.097 76.98C149.345 77.452 149.693 77.8 150.141 78.024C150.597 78.256 151.081 78.372 151.593 78.372C152.193 78.372 152.729 78.264 153.201 78.048C153.673 77.84 154.037 77.528 154.293 77.112C154.557 76.704 154.681 76.192 154.665 75.576V71.892H155.025V62.04H157.557V75.624C157.557 75.952 157.541 76.264 157.509 76.56C157.485 76.864 157.441 77.16 157.377 77.448C157.185 78.288 156.817 78.976 156.273 79.512C155.729 80.056 155.053 80.46 154.245 80.724C153.445 80.988 152.557 81.12 151.581 81.12ZM151.329 75.36C150.137 75.36 149.097 75.06 148.209 74.46C147.321 73.86 146.633 73.044 146.145 72.012C145.657 70.98 145.413 69.816 145.413 68.52C145.413 67.208 145.657 66.04 146.145 65.016C146.641 63.984 147.341 63.172 148.245 62.58C149.149 61.98 150.213 61.68 151.437 61.68C152.669 61.68 153.701 61.98 154.533 62.58C155.373 63.172 156.009 63.984 156.441 65.016C156.873 66.048 157.089 67.216 157.089 68.52C157.089 69.808 156.873 70.972 156.441 72.012C156.009 73.044 155.365 73.86 154.509 74.46C153.653 75.06 152.593 75.36 151.329 75.36ZM151.773 72.768C152.549 72.768 153.173 72.592 153.645 72.24C154.125 71.88 154.473 71.38 154.689 70.74C154.913 70.1 155.025 69.36 155.025 68.52C155.025 67.672 154.913 66.932 154.689 66.3C154.473 65.66 154.133 65.164 153.669 64.812C153.205 64.452 152.605 64.272 151.869 64.272C151.093 64.272 150.453 64.464 149.949 64.848C149.445 65.224 149.073 65.736 148.833 66.384C148.593 67.024 148.473 67.736 148.473 68.52C148.473 69.312 148.589 70.032 148.821 70.68C149.061 71.32 149.425 71.828 149.913 72.204C150.401 72.58 151.021 72.768 151.773 72.768ZM161.162 75V57.36H164.054V75H161.162ZM173.541 75.36C172.229 75.36 171.077 75.076 170.085 74.508C169.093 73.94 168.317 73.152 167.757 72.144C167.205 71.136 166.929 69.976 166.929 68.664C166.929 67.248 167.201 66.02 167.745 64.98C168.289 63.932 169.045 63.12 170.013 62.544C170.981 61.968 172.101 61.68 173.373 61.68C174.717 61.68 175.857 61.996 176.793 62.628C177.737 63.252 178.437 64.136 178.893 65.28C179.349 66.424 179.521 67.772 179.409 69.324H176.541V68.268C176.533 66.86 176.285 65.832 175.797 65.184C175.309 64.536 174.541 64.212 173.493 64.212C172.309 64.212 171.429 64.58 170.853 65.316C170.277 66.044 169.989 67.112 169.989 68.52C169.989 69.832 170.277 70.848 170.853 71.568C171.429 72.288 172.269 72.648 173.373 72.648C174.085 72.648 174.697 72.492 175.209 72.18C175.729 71.86 176.129 71.4 176.409 70.8L179.265 71.664C178.769 72.832 178.001 73.74 176.961 74.388C175.929 75.036 174.789 75.36 173.541 75.36ZM169.077 69.324V67.14H177.993V69.324H169.077ZM186.891 75V57.72H194.031C194.199 57.72 194.415 57.728 194.679 57.744C194.943 57.752 195.187 57.776 195.411 57.816C196.411 57.968 197.235 58.3 197.883 58.812C198.539 59.324 199.023 59.972 199.335 60.756C199.655 61.532 199.815 62.396 199.815 63.348C199.815 64.292 199.655 65.156 199.335 65.94C199.015 66.716 198.527 67.36 197.871 67.872C197.223 68.384 196.403 68.716 195.411 68.868C195.187 68.9 194.939 68.924 194.667 68.94C194.403 68.956 194.191 68.964 194.031 68.964H189.783V75H186.891ZM189.783 66.264H193.911C194.071 66.264 194.251 66.256 194.451 66.24C194.651 66.224 194.835 66.192 195.003 66.144C195.483 66.024 195.859 65.812 196.131 65.508C196.411 65.204 196.607 64.86 196.719 64.476C196.839 64.092 196.899 63.716 196.899 63.348C196.899 62.98 196.839 62.604 196.719 62.22C196.607 61.828 196.411 61.48 196.131 61.176C195.859 60.872 195.483 60.66 195.003 60.54C194.835 60.492 194.651 60.464 194.451 60.456C194.251 60.44 194.071 60.432 193.911 60.432H189.783V66.264ZM202.459 75V57.36H205.351V75H202.459ZM212.57 75.36C211.634 75.36 210.842 75.184 210.194 74.832C209.546 74.472 209.054 73.996 208.718 73.404C208.39 72.812 208.226 72.16 208.226 71.448C208.226 70.824 208.33 70.264 208.538 69.768C208.746 69.264 209.066 68.832 209.498 68.472C209.93 68.104 210.49 67.804 211.178 67.572C211.698 67.404 212.306 67.252 213.002 67.116C213.706 66.98 214.466 66.856 215.282 66.744C216.106 66.624 216.966 66.496 217.862 66.36L216.83 66.948C216.838 66.052 216.638 65.392 216.23 64.968C215.822 64.544 215.134 64.332 214.166 64.332C213.582 64.332 213.018 64.468 212.474 64.74C211.93 65.012 211.55 65.48 211.334 66.144L208.694 65.316C209.014 64.22 209.622 63.34 210.518 62.676C211.422 62.012 212.638 61.68 214.166 61.68C215.318 61.68 216.33 61.868 217.202 62.244C218.082 62.62 218.734 63.236 219.158 64.092C219.39 64.548 219.53 65.016 219.578 65.496C219.626 65.968 219.65 66.484 219.65 67.044V75H217.118V72.192L217.538 72.648C216.954 73.584 216.27 74.272 215.486 74.712C214.71 75.144 213.738 75.36 212.57 75.36ZM213.146 73.056C213.802 73.056 214.362 72.94 214.826 72.708C215.29 72.476 215.658 72.192 215.93 71.856C216.21 71.52 216.398 71.204 216.494 70.908C216.646 70.54 216.73 70.12 216.746 69.648C216.77 69.168 216.782 68.78 216.782 68.484L217.67 68.748C216.798 68.884 216.05 69.004 215.426 69.108C214.802 69.212 214.266 69.312 213.818 69.408C213.37 69.496 212.974 69.596 212.63 69.708C212.294 69.828 212.01 69.968 211.778 70.128C211.546 70.288 211.366 70.472 211.238 70.68C211.118 70.888 211.058 71.132 211.058 71.412C211.058 71.732 211.138 72.016 211.298 72.264C211.458 72.504 211.69 72.696 211.994 72.84C212.306 72.984 212.69 73.056 213.146 73.056ZM223.751 80.76L226.247 73.908L226.295 75.924L220.643 62.04H223.655L227.663 72.312H226.895L230.795 62.04H233.687L226.463 80.76H223.751Z" fill="black"/>
</g>
<defs>
<filter id="filter0_d_400_4451" x="0" y="0" width="267" height="117" filterUnits="userSpaceOnUse" color-interpolation-filters="sRGB">
<feFlood flood-opacity="0" result="BackgroundImageFix"/>
<feColorMatrix in="SourceAlpha" type="matrix" values="0 0 0 0 0 0 0 0 0 0 0 0 0 0 0 0 0 0 127 0" result="hardAlpha"/>
<feOffset dy="5"/>
<feGaussianBlur stdDeviation="8"/>
<feComposite in2="hardAlpha" operator="out"/>
<feColorMatrix type="matrix" values="0 0 0 0 0 0 0 0 0 0 0 0 0 0 0 0 0 0 0.1 0"/>
<feBlend mode="normal" in2="BackgroundImageFix" result="effect1_dropShadow_400_4451"/>
<feBlend mode="normal" in="SourceGraphic" in2="effect1_dropShadow_400_4451" result="shape"/>
</filter>
<clipPath id="clip0_400_4451">
<rect width="48" height="48" fill="white" transform="translate(33 29.5)"/>
</clipPath>
</defs>
</svg>
