<svg width="267" height="117" viewBox="0 0 267 117" fill="none" xmlns="http://www.w3.org/2000/svg">
<g filter="url(#filter0_d_400_4450)">
<rect x="16" y="11" width="235" height="85" rx="8" fill="white" shape-rendering="crispEdges"/>
<g clip-path="url(#clip0_400_4450)">
<path d="M76.8681 66.9064C76.1677 68.5369 75.3029 70.0918 74.2869 71.5468C73.3309 73.0048 72.2161 74.3522 70.9629 75.5644C69.8239 76.7031 68.2999 77.3743 66.6909 77.446C65.3273 77.3864 63.9877 77.0667 62.7441 76.504C61.4018 75.919 59.9587 75.5999 58.4949 75.5644C56.9917 75.5942 55.5083 75.9132 54.1257 76.504C52.9316 77.044 51.6556 77.3807 50.3505 77.5C49.5295 77.4901 48.7189 77.3138 47.9679 76.9818C47.2169 76.6497 46.5411 76.1687 45.9813 75.568C44.6724 74.3129 43.5054 72.9177 42.5013 71.4076C40.9343 69.1607 39.6962 66.7014 38.8245 64.1044C37.8312 61.3072 37.3105 58.3642 37.2837 55.396C37.2045 52.4852 37.9263 49.6085 39.3705 47.08C40.4228 45.2543 41.9286 43.7311 43.7421 42.658C45.5296 41.5884 47.5692 41.0128 49.6521 40.99C51.2254 41.0834 52.7714 41.4433 54.2241 42.0544C55.382 42.5646 56.6008 42.9232 57.8505 43.1212C59.2283 42.8322 60.5746 42.4098 61.8705 41.86C63.6047 41.1589 65.4673 40.8318 67.3365 40.9C69.1174 40.9464 70.8636 41.4022 72.4399 42.2321C74.0163 43.062 75.3804 44.2437 76.4265 45.6856C74.7674 46.5673 73.3868 47.8939 72.4396 49.5164C71.4923 51.139 71.0159 52.9934 71.0637 54.8716C71.0465 56.3061 71.3342 57.728 71.9076 59.0431C72.4811 60.3581 73.3272 61.5364 74.3901 62.5C75.3556 63.4238 76.4822 64.1628 77.7141 64.6804C77.4477 65.454 77.1653 66.1956 76.8669 66.9052L76.8681 66.9064ZM67.6053 30.46C67.5744 32.9444 66.6412 35.3327 64.9797 37.18C62.8713 39.6436 60.3237 41.068 57.5529 40.8436C57.516 40.5418 57.4976 40.238 57.4977 39.934C57.5816 37.4107 58.5702 35.0017 60.2829 33.1468C61.2324 32.0803 62.3854 31.2141 63.6741 30.5992C64.8808 29.976 66.2006 29.6021 67.5549 29.5C67.5894 29.8188 67.6062 30.1393 67.6053 30.46Z" fill="black"/>
</g>
<path opacity="0.66" d="M98.6591 43V31.48H102.211C102.328 31.48 102.534 31.4827 102.827 31.488C103.12 31.4933 103.4 31.5147 103.667 31.552C104.558 31.6693 105.302 31.9947 105.899 32.528C106.502 33.056 106.955 33.728 107.259 34.544C107.563 35.36 107.715 36.2587 107.715 37.24C107.715 38.2213 107.563 39.12 107.259 39.936C106.955 40.752 106.502 41.4267 105.899 41.96C105.302 42.488 104.558 42.8107 103.667 42.928C103.4 42.96 103.118 42.9813 102.819 42.992C102.526 42.9973 102.323 43 102.211 43H98.6591ZM100.123 41.64H102.211C102.414 41.64 102.64 41.6347 102.891 41.624C103.142 41.608 103.36 41.584 103.547 41.552C104.176 41.4347 104.686 41.1707 105.075 40.76C105.464 40.3493 105.75 39.8373 105.931 39.224C106.112 38.6107 106.203 37.9493 106.203 37.24C106.203 36.5147 106.11 35.8453 105.923 35.232C105.742 34.6187 105.456 34.1093 105.067 33.704C104.678 33.2987 104.171 33.04 103.547 32.928C103.36 32.8907 103.139 32.8667 102.883 32.856C102.627 32.8453 102.403 32.84 102.211 32.84H100.123V41.64ZM113.23 43.24C112.371 43.24 111.63 43.0453 111.006 42.656C110.387 42.2667 109.91 41.728 109.574 41.04C109.238 40.352 109.07 39.5627 109.07 38.672C109.07 37.7653 109.24 36.9707 109.582 36.288C109.923 35.6053 110.406 35.0747 111.03 34.696C111.654 34.312 112.387 34.12 113.23 34.12C114.094 34.12 114.838 34.3147 115.462 34.704C116.086 35.088 116.563 35.624 116.894 36.312C117.23 36.9947 117.398 37.7813 117.398 38.672C117.398 39.5733 117.23 40.368 116.894 41.056C116.558 41.7387 116.078 42.2747 115.454 42.664C114.83 43.048 114.088 43.24 113.23 43.24ZM113.23 41.888C114.126 41.888 114.792 41.5893 115.23 40.992C115.667 40.3947 115.886 39.6213 115.886 38.672C115.886 37.696 115.664 36.92 115.222 36.344C114.779 35.7627 114.115 35.472 113.23 35.472C112.627 35.472 112.131 35.608 111.742 35.88C111.352 36.152 111.062 36.528 110.87 37.008C110.678 37.488 110.582 38.0427 110.582 38.672C110.582 39.6427 110.806 40.4213 111.254 41.008C111.702 41.5947 112.36 41.888 113.23 41.888ZM120.687 43L118.047 34.352L119.463 34.36L121.391 40.68L123.335 34.36H124.591L126.527 40.68L128.463 34.36H129.871L127.231 43H126.047L123.959 36.432L121.871 43H120.687ZM137.467 43V38.672C137.467 38.2613 137.43 37.8667 137.355 37.488C137.286 37.1093 137.161 36.7707 136.979 36.472C136.803 36.168 136.563 35.928 136.259 35.752C135.961 35.576 135.582 35.488 135.123 35.488C134.766 35.488 134.441 35.5493 134.147 35.672C133.859 35.7893 133.611 35.9707 133.403 36.216C133.195 36.4613 133.033 36.7707 132.915 37.144C132.803 37.512 132.747 37.9467 132.747 38.448L131.811 38.16C131.811 37.3227 131.961 36.6053 132.259 36.008C132.563 35.4053 132.987 34.944 133.531 34.624C134.081 34.2987 134.726 34.136 135.467 34.136C136.027 34.136 136.505 34.224 136.899 34.4C137.294 34.576 137.622 34.8107 137.883 35.104C138.145 35.392 138.35 35.7173 138.499 36.08C138.649 36.4373 138.753 36.8027 138.811 37.176C138.875 37.544 138.907 37.8933 138.907 38.224V43H137.467ZM131.307 43V34.36H132.587V36.672H132.747V43H131.307ZM141.147 43V31.24H142.571V43H141.147ZM148.652 43.24C147.793 43.24 147.052 43.0453 146.428 42.656C145.809 42.2667 145.332 41.728 144.996 41.04C144.66 40.352 144.492 39.5627 144.492 38.672C144.492 37.7653 144.662 36.9707 145.004 36.288C145.345 35.6053 145.828 35.0747 146.452 34.696C147.076 34.312 147.809 34.12 148.652 34.12C149.516 34.12 150.26 34.3147 150.884 34.704C151.508 35.088 151.985 35.624 152.316 36.312C152.652 36.9947 152.82 37.7813 152.82 38.672C152.82 39.5733 152.652 40.368 152.316 41.056C151.98 41.7387 151.5 42.2747 150.876 42.664C150.252 43.048 149.51 43.24 148.652 43.24ZM148.652 41.888C149.548 41.888 150.214 41.5893 150.652 40.992C151.089 40.3947 151.308 39.6213 151.308 38.672C151.308 37.696 151.086 36.92 150.644 36.344C150.201 35.7627 149.537 35.472 148.652 35.472C148.049 35.472 147.553 35.608 147.164 35.88C146.774 36.152 146.484 36.528 146.292 37.008C146.1 37.488 146.004 38.0427 146.004 38.672C146.004 39.6427 146.228 40.4213 146.676 41.008C147.124 41.5947 147.782 41.888 148.652 41.888ZM157.037 43.24C156.392 43.24 155.85 43.1227 155.413 42.888C154.981 42.648 154.653 42.3333 154.429 41.944C154.21 41.5547 154.101 41.128 154.101 40.664C154.101 40.2107 154.186 39.8187 154.357 39.488C154.533 39.152 154.778 38.8747 155.093 38.656C155.408 38.432 155.784 38.256 156.221 38.128C156.632 38.016 157.09 37.92 157.597 37.84C158.109 37.7547 158.626 37.6773 159.149 37.608C159.672 37.5387 160.16 37.472 160.613 37.408L160.101 37.704C160.117 36.936 159.962 36.368 159.637 36C159.317 35.632 158.762 35.448 157.973 35.448C157.45 35.448 156.992 35.568 156.597 35.808C156.208 36.0427 155.933 36.4267 155.773 36.96L154.421 36.552C154.629 35.7947 155.032 35.2 155.629 34.768C156.226 34.336 157.013 34.12 157.989 34.12C158.773 34.12 159.445 34.2613 160.005 34.544C160.57 34.8213 160.976 35.2427 161.221 35.808C161.344 36.0747 161.421 36.3653 161.453 36.68C161.485 36.9893 161.501 37.3147 161.501 37.656V43H160.237V40.928L160.533 41.12C160.208 41.8187 159.752 42.3467 159.165 42.704C158.584 43.0613 157.874 43.24 157.037 43.24ZM157.253 42.048C157.765 42.048 158.208 41.9573 158.581 41.776C158.96 41.5893 159.264 41.3467 159.493 41.048C159.722 40.744 159.872 40.4133 159.941 40.056C160.021 39.7893 160.064 39.4933 160.069 39.168C160.08 38.8373 160.085 38.584 160.085 38.408L160.581 38.624C160.117 38.688 159.661 38.7493 159.213 38.808C158.765 38.8667 158.341 38.9307 157.941 39C157.541 39.064 157.181 39.1413 156.861 39.232C156.626 39.3067 156.405 39.4027 156.197 39.52C155.994 39.6373 155.829 39.7893 155.701 39.976C155.578 40.1573 155.517 40.384 155.517 40.656C155.517 40.8907 155.576 41.1147 155.693 41.328C155.816 41.5413 156.002 41.7147 156.253 41.848C156.509 41.9813 156.842 42.048 157.253 42.048ZM166.973 43.24C166.168 43.24 165.477 43.04 164.901 42.64C164.325 42.2347 163.88 41.688 163.565 41C163.256 40.312 163.101 39.536 163.101 38.672C163.101 37.808 163.256 37.032 163.565 36.344C163.88 35.656 164.325 35.1147 164.901 34.72C165.477 34.32 166.165 34.12 166.965 34.12C167.781 34.12 168.466 34.3173 169.021 34.712C169.576 35.1067 169.994 35.648 170.277 36.336C170.565 37.024 170.709 37.8027 170.709 38.672C170.709 39.5307 170.565 40.3067 170.277 41C169.994 41.688 169.576 42.2347 169.021 42.64C168.466 43.04 167.784 43.24 166.973 43.24ZM167.149 41.936C167.73 41.936 168.208 41.7973 168.581 41.52C168.954 41.2373 169.229 40.8507 169.405 40.36C169.586 39.864 169.677 39.3013 169.677 38.672C169.677 38.032 169.586 37.4693 169.405 36.984C169.229 36.4933 168.957 36.112 168.589 35.84C168.221 35.5627 167.754 35.424 167.189 35.424C166.602 35.424 166.117 35.568 165.733 35.856C165.354 36.144 165.072 36.5333 164.885 37.024C164.704 37.5147 164.613 38.064 164.613 38.672C164.613 39.2853 164.706 39.84 164.893 40.336C165.08 40.8267 165.36 41.216 165.733 41.504C166.112 41.792 166.584 41.936 167.149 41.936ZM169.677 43V36.64H169.517V31.48H170.949V43H169.677ZM180.073 43.24C179.215 43.24 178.473 43.0453 177.849 42.656C177.231 42.2667 176.753 41.728 176.417 41.04C176.081 40.352 175.913 39.5627 175.913 38.672C175.913 37.7653 176.084 36.9707 176.425 36.288C176.767 35.6053 177.249 35.0747 177.873 34.696C178.497 34.312 179.231 34.12 180.073 34.12C180.937 34.12 181.681 34.3147 182.305 34.704C182.929 35.088 183.407 35.624 183.737 36.312C184.073 36.9947 184.241 37.7813 184.241 38.672C184.241 39.5733 184.073 40.368 183.737 41.056C183.401 41.7387 182.921 42.2747 182.297 42.664C181.673 43.048 180.932 43.24 180.073 43.24ZM180.073 41.888C180.969 41.888 181.636 41.5893 182.073 40.992C182.511 40.3947 182.729 39.6213 182.729 38.672C182.729 37.696 182.508 36.92 182.065 36.344C181.623 35.7627 180.959 35.472 180.073 35.472C179.471 35.472 178.975 35.608 178.585 35.88C178.196 36.152 177.905 36.528 177.713 37.008C177.521 37.488 177.425 38.0427 177.425 38.672C177.425 39.6427 177.649 40.4213 178.097 41.008C178.545 41.5947 179.204 41.888 180.073 41.888ZM192.155 43V38.672C192.155 38.2613 192.117 37.8667 192.043 37.488C191.973 37.1093 191.848 36.7707 191.667 36.472C191.491 36.168 191.251 35.928 190.947 35.752C190.648 35.576 190.269 35.488 189.811 35.488C189.453 35.488 189.128 35.5493 188.835 35.672C188.547 35.7893 188.299 35.9707 188.091 36.216C187.883 36.4613 187.72 36.7707 187.603 37.144C187.491 37.512 187.435 37.9467 187.435 38.448L186.499 38.16C186.499 37.3227 186.648 36.6053 186.947 36.008C187.251 35.4053 187.675 34.944 188.219 34.624C188.768 34.2987 189.413 34.136 190.155 34.136C190.715 34.136 191.192 34.224 191.587 34.4C191.981 34.576 192.309 34.8107 192.571 35.104C192.832 35.392 193.037 35.7173 193.187 36.08C193.336 36.4373 193.44 36.8027 193.499 37.176C193.563 37.544 193.595 37.8933 193.595 38.224V43H192.155ZM185.995 43V34.36H187.275V36.672H187.435V43H185.995ZM203.702 43C203.19 43.1013 202.683 43.1413 202.182 43.12C201.686 43.104 201.243 43.0053 200.854 42.824C200.464 42.6373 200.168 42.3493 199.966 41.96C199.795 41.6187 199.702 41.2747 199.686 40.928C199.675 40.576 199.67 40.1787 199.67 39.736V31.96H201.094V39.672C201.094 40.024 201.096 40.3253 201.102 40.576C201.112 40.8267 201.168 41.0427 201.27 41.224C201.462 41.5653 201.766 41.7653 202.182 41.824C202.603 41.8827 203.11 41.8667 203.702 41.776V43ZM197.918 35.536V34.36H203.702V35.536H197.918ZM211.608 43V38.672C211.608 38.2613 211.571 37.8667 211.496 37.488C211.427 37.1093 211.301 36.7707 211.12 36.472C210.944 36.168 210.704 35.928 210.4 35.752C210.101 35.576 209.723 35.488 209.264 35.488C208.907 35.488 208.581 35.5493 208.288 35.672C208 35.7893 207.752 35.9707 207.544 36.216C207.336 36.4613 207.173 36.7707 207.056 37.144C206.944 37.512 206.888 37.9467 206.888 38.448L205.952 38.16C205.952 37.3227 206.101 36.6053 206.4 36.008C206.704 35.4053 207.128 34.944 207.672 34.624C208.221 34.2987 208.867 34.136 209.608 34.136C210.168 34.136 210.645 34.224 211.04 34.4C211.435 34.576 211.763 34.8107 212.024 35.104C212.285 35.392 212.491 35.7173 212.64 36.08C212.789 36.4373 212.893 36.8027 212.952 37.176C213.016 37.544 213.048 37.8933 213.048 38.224V43H211.608ZM205.448 43V31.48H206.728V37.84H206.888V43H205.448ZM218.872 43.24C218.024 43.24 217.282 43.0533 216.648 42.68C216.018 42.3013 215.528 41.776 215.176 41.104C214.824 40.4267 214.648 39.6373 214.648 38.736C214.648 37.792 214.821 36.976 215.168 36.288C215.514 35.5947 215.997 35.0613 216.616 34.688C217.24 34.3093 217.97 34.12 218.808 34.12C219.677 34.12 220.416 34.32 221.024 34.72C221.637 35.12 222.096 35.6907 222.4 36.432C222.709 37.1733 222.842 38.056 222.8 39.08H221.36V38.568C221.344 37.5067 221.128 36.7147 220.712 36.192C220.296 35.664 219.677 35.4 218.856 35.4C217.976 35.4 217.306 35.6827 216.848 36.248C216.389 36.8133 216.16 37.624 216.16 38.68C216.16 39.6987 216.389 40.488 216.848 41.048C217.306 41.608 217.96 41.888 218.808 41.888C219.378 41.888 219.874 41.7573 220.296 41.496C220.717 41.2347 221.048 40.8587 221.288 40.368L222.656 40.84C222.32 41.6027 221.813 42.1947 221.136 42.616C220.464 43.032 219.709 43.24 218.872 43.24ZM215.68 39.08V37.936H222.064V39.08H215.68Z" fill="black"/>
<path d="M98.0933 75L103.541 57.72H107.777L113.225 75H110.249L105.305 59.496H105.953L101.069 75H98.0933ZM101.129 71.256V68.556H110.201V71.256H101.129ZM121.623 75.36C120.359 75.36 119.299 75.06 118.443 74.46C117.587 73.86 116.943 73.044 116.511 72.012C116.079 70.972 115.863 69.808 115.863 68.52C115.863 67.216 116.079 66.048 116.511 65.016C116.943 63.984 117.575 63.172 118.407 62.58C119.247 61.98 120.283 61.68 121.515 61.68C122.739 61.68 123.799 61.98 124.695 62.58C125.599 63.172 126.299 63.984 126.795 65.016C127.291 66.04 127.539 67.208 127.539 68.52C127.539 69.816 127.295 70.98 126.807 72.012C126.319 73.044 125.631 73.86 124.743 74.46C123.855 75.06 122.815 75.36 121.623 75.36ZM115.371 80.76V62.04H117.927V71.136H118.287V80.76H115.371ZM121.179 72.768C121.931 72.768 122.551 72.58 123.039 72.204C123.527 71.828 123.887 71.32 124.119 70.68C124.359 70.032 124.479 69.312 124.479 68.52C124.479 67.736 124.359 67.024 124.119 66.384C123.879 65.736 123.507 65.224 123.003 64.848C122.499 64.464 121.859 64.272 121.083 64.272C120.347 64.272 119.747 64.452 119.283 64.812C118.819 65.164 118.475 65.66 118.251 66.3C118.035 66.932 117.927 67.672 117.927 68.52C117.927 69.36 118.035 70.1 118.251 70.74C118.475 71.38 118.823 71.88 119.295 72.24C119.775 72.592 120.403 72.768 121.179 72.768ZM136.412 75.36C135.148 75.36 134.088 75.06 133.232 74.46C132.376 73.86 131.732 73.044 131.3 72.012C130.868 70.972 130.652 69.808 130.652 68.52C130.652 67.216 130.868 66.048 131.3 65.016C131.732 63.984 132.364 63.172 133.196 62.58C134.036 61.98 135.072 61.68 136.304 61.68C137.528 61.68 138.588 61.98 139.484 62.58C140.388 63.172 141.088 63.984 141.584 65.016C142.08 66.04 142.328 67.208 142.328 68.52C142.328 69.816 142.084 70.98 141.596 72.012C141.108 73.044 140.42 73.86 139.532 74.46C138.644 75.06 137.604 75.36 136.412 75.36ZM130.16 80.76V62.04H132.716V71.136H133.076V80.76H130.16ZM135.968 72.768C136.72 72.768 137.34 72.58 137.828 72.204C138.316 71.828 138.676 71.32 138.908 70.68C139.148 70.032 139.268 69.312 139.268 68.52C139.268 67.736 139.148 67.024 138.908 66.384C138.668 65.736 138.296 65.224 137.792 64.848C137.288 64.464 136.648 64.272 135.872 64.272C135.136 64.272 134.536 64.452 134.072 64.812C133.608 65.164 133.264 65.66 133.04 66.3C132.824 66.932 132.716 67.672 132.716 68.52C132.716 69.36 132.824 70.1 133.04 70.74C133.264 71.38 133.612 71.88 134.084 72.24C134.564 72.592 135.192 72.768 135.968 72.768ZM145.213 75V57.36H148.105V75H145.213ZM157.592 75.36C156.28 75.36 155.128 75.076 154.136 74.508C153.144 73.94 152.368 73.152 151.808 72.144C151.256 71.136 150.98 69.976 150.98 68.664C150.98 67.248 151.252 66.02 151.796 64.98C152.34 63.932 153.096 63.12 154.064 62.544C155.032 61.968 156.152 61.68 157.424 61.68C158.768 61.68 159.908 61.996 160.844 62.628C161.788 63.252 162.488 64.136 162.944 65.28C163.4 66.424 163.572 67.772 163.46 69.324H160.592V68.268C160.584 66.86 160.336 65.832 159.848 65.184C159.36 64.536 158.592 64.212 157.544 64.212C156.36 64.212 155.48 64.58 154.904 65.316C154.328 66.044 154.04 67.112 154.04 68.52C154.04 69.832 154.328 70.848 154.904 71.568C155.48 72.288 156.32 72.648 157.424 72.648C158.136 72.648 158.748 72.492 159.26 72.18C159.78 71.86 160.18 71.4 160.46 70.8L163.316 71.664C162.82 72.832 162.052 73.74 161.012 74.388C159.98 75.036 158.84 75.36 157.592 75.36ZM153.128 69.324V67.14H162.044V69.324H153.128ZM177.338 75.36C176.074 75.36 174.934 75.14 173.918 74.7C172.91 74.26 172.078 73.632 171.422 72.816C170.774 71.992 170.362 71.016 170.186 69.888L173.186 69.432C173.442 70.456 173.966 71.248 174.758 71.808C175.558 72.368 176.478 72.648 177.518 72.648C178.134 72.648 178.714 72.552 179.258 72.36C179.802 72.168 180.242 71.888 180.578 71.52C180.922 71.152 181.094 70.7 181.094 70.164C181.094 69.924 181.054 69.704 180.974 69.504C180.894 69.296 180.774 69.112 180.614 68.952C180.462 68.792 180.262 68.648 180.014 68.52C179.774 68.384 179.494 68.268 179.174 68.172L174.71 66.852C174.326 66.74 173.91 66.592 173.462 66.408C173.022 66.216 172.602 65.956 172.202 65.628C171.81 65.292 171.486 64.868 171.23 64.356C170.982 63.836 170.858 63.196 170.858 62.436C170.858 61.324 171.138 60.392 171.698 59.64C172.266 58.88 173.026 58.312 173.978 57.936C174.938 57.56 176.002 57.376 177.17 57.384C178.354 57.392 179.41 57.596 180.338 57.996C181.266 58.388 182.042 58.96 182.666 59.712C183.29 60.464 183.73 61.372 183.986 62.436L180.878 62.976C180.75 62.368 180.502 61.852 180.134 61.428C179.774 60.996 179.33 60.668 178.802 60.444C178.282 60.22 177.726 60.1 177.134 60.084C176.558 60.076 176.022 60.164 175.526 60.348C175.038 60.524 174.642 60.78 174.338 61.116C174.042 61.452 173.894 61.844 173.894 62.292C173.894 62.716 174.022 63.064 174.278 63.336C174.534 63.6 174.85 63.812 175.226 63.972C175.61 64.124 175.998 64.252 176.39 64.356L179.486 65.22C179.91 65.332 180.386 65.484 180.914 65.676C181.442 65.868 181.95 66.136 182.438 66.48C182.926 66.824 183.326 67.276 183.638 67.836C183.958 68.396 184.118 69.108 184.118 69.972C184.118 70.868 183.93 71.656 183.554 72.336C183.186 73.008 182.686 73.568 182.054 74.016C181.422 74.464 180.698 74.8 179.882 75.024C179.074 75.248 178.226 75.36 177.338 75.36ZM194.311 75C193.455 75.16 192.615 75.228 191.791 75.204C190.975 75.188 190.243 75.04 189.595 74.76C188.947 74.472 188.455 74.02 188.119 73.404C187.823 72.844 187.667 72.272 187.651 71.688C187.635 71.104 187.627 70.444 187.627 69.708V58.44H190.507V69.54C190.507 70.06 190.511 70.516 190.519 70.908C190.535 71.3 190.619 71.62 190.771 71.868C191.059 72.348 191.519 72.616 192.151 72.672C192.783 72.728 193.503 72.696 194.311 72.576V75ZM185.275 64.308V62.04H194.311V64.308H185.275ZM202.166 75.36C200.87 75.36 199.738 75.068 198.77 74.484C197.802 73.9 197.05 73.096 196.514 72.072C195.986 71.04 195.722 69.856 195.722 68.52C195.722 67.16 195.994 65.968 196.538 64.944C197.082 63.92 197.838 63.12 198.806 62.544C199.774 61.968 200.894 61.68 202.166 61.68C203.47 61.68 204.606 61.972 205.574 62.556C206.542 63.14 207.294 63.948 207.83 64.98C208.366 66.004 208.634 67.184 208.634 68.52C208.634 69.864 208.362 71.052 207.818 72.084C207.282 73.108 206.53 73.912 205.562 74.496C204.594 75.072 203.462 75.36 202.166 75.36ZM202.166 72.648C203.318 72.648 204.174 72.264 204.734 71.496C205.294 70.728 205.574 69.736 205.574 68.52C205.574 67.264 205.29 66.264 204.722 65.52C204.154 64.768 203.302 64.392 202.166 64.392C201.39 64.392 200.75 64.568 200.246 64.92C199.75 65.264 199.382 65.748 199.142 66.372C198.902 66.988 198.782 67.704 198.782 68.52C198.782 69.776 199.066 70.78 199.634 71.532C200.21 72.276 201.054 72.648 202.166 72.648ZM211.278 75V62.04H213.834V65.196L213.522 64.788C213.682 64.356 213.894 63.964 214.158 63.612C214.43 63.252 214.754 62.956 215.13 62.724C215.45 62.508 215.802 62.34 216.186 62.22C216.578 62.092 216.978 62.016 217.386 61.992C217.794 61.96 218.19 61.976 218.574 62.04V64.74C218.19 64.628 217.746 64.592 217.242 64.632C216.746 64.672 216.298 64.812 215.898 65.052C215.498 65.268 215.17 65.544 214.914 65.88C214.666 66.216 214.482 66.6 214.362 67.032C214.242 67.456 214.182 67.916 214.182 68.412V75H211.278ZM226.521 75.36C225.209 75.36 224.057 75.076 223.065 74.508C222.073 73.94 221.297 73.152 220.737 72.144C220.185 71.136 219.909 69.976 219.909 68.664C219.909 67.248 220.181 66.02 220.725 64.98C221.269 63.932 222.025 63.12 222.993 62.544C223.961 61.968 225.081 61.68 226.353 61.68C227.697 61.68 228.837 61.996 229.773 62.628C230.717 63.252 231.417 64.136 231.873 65.28C232.329 66.424 232.501 67.772 232.389 69.324H229.521V68.268C229.513 66.86 229.265 65.832 228.777 65.184C228.289 64.536 227.521 64.212 226.473 64.212C225.289 64.212 224.409 64.58 223.833 65.316C223.257 66.044 222.969 67.112 222.969 68.52C222.969 69.832 223.257 70.848 223.833 71.568C224.409 72.288 225.249 72.648 226.353 72.648C227.065 72.648 227.677 72.492 228.189 72.18C228.709 71.86 229.109 71.4 229.389 70.8L232.245 71.664C231.749 72.832 230.981 73.74 229.941 74.388C228.909 75.036 227.769 75.36 226.521 75.36ZM222.057 69.324V67.14H230.973V69.324H222.057Z" fill="black"/>
</g>
<defs>
<filter id="filter0_d_400_4450" x="0" y="0" width="267" height="117" filterUnits="userSpaceOnUse" color-interpolation-filters="sRGB">
<feFlood flood-opacity="0" result="BackgroundImageFix"/>
<feColorMatrix in="SourceAlpha" type="matrix" values="0 0 0 0 0 0 0 0 0 0 0 0 0 0 0 0 0 0 127 0" result="hardAlpha"/>
<feOffset dy="5"/>
<feGaussianBlur stdDeviation="8"/>
<feComposite in2="hardAlpha" operator="out"/>
<feColorMatrix type="matrix" values="0 0 0 0 0 0 0 0 0 0 0 0 0 0 0 0 0 0 0.1 0"/>
<feBlend mode="normal" in2="BackgroundImageFix" result="effect1_dropShadow_400_4450"/>
<feBlend mode="normal" in="SourceGraphic" in2="effect1_dropShadow_400_4450" result="shape"/>
</filter>
<clipPath id="clip0_400_4450">
<rect width="48" height="48" fill="white" transform="translate(33.5 29.5)"/>
</clipPath>
</defs>
</svg>
