<svg width="300" height="196" viewBox="0 0 300 196" fill="none" xmlns="http://www.w3.org/2000/svg">
<g clip-path="url(#clip0_162_754)">
<path d="M155.855 0.767357L32.9009 79.5165L49.6522 195.105H242.997L267.099 95.7226L155.855 0.767357Z" fill="#F6F5FA"/>
<path opacity="0.1" d="M155.855 0.767357L32.9009 79.5156L49.6531 195.104H242.997L267.099 95.7218L155.855 0.767357Z" fill="#F96D52"/>
<path fill-rule="evenodd" clip-rule="evenodd" d="M119.183 83.7827C119.186 83.3515 119.103 82.9241 118.94 82.5248C118.777 82.1255 118.536 81.7622 118.232 81.4556C117.928 81.149 117.566 80.9051 117.168 80.7379C116.769 80.5706 116.342 80.4833 115.909 80.4809H58.1799C57.7456 80.4794 57.3153 80.5632 56.9135 80.7275C56.5117 80.8918 56.1462 81.1334 55.8381 81.4385C55.5299 81.7437 55.2851 82.1063 55.1175 82.5058C54.9499 82.9053 54.8628 83.3338 54.8613 83.7668V120.105C54.8639 120.981 55.2146 121.82 55.8366 122.439C56.4586 123.058 57.3012 123.406 58.1799 123.406H115.872C116.306 123.407 116.736 123.322 117.137 123.157C117.539 122.992 117.903 122.749 118.211 122.443C118.518 122.138 118.762 121.775 118.929 121.375C119.095 120.975 119.181 120.546 119.182 120.114V83.7827H119.183Z" fill="black"/>
<path fill-rule="evenodd" clip-rule="evenodd" d="M111.694 56.9547C111.694 56.5946 111.623 56.238 111.485 55.9052C111.346 55.5724 111.144 55.2701 110.889 55.0153C110.633 54.7606 110.33 54.5585 109.996 54.4206C109.663 54.2827 109.305 54.2116 108.944 54.2115H65.3838C64.6532 54.2108 63.9521 54.4993 63.4347 55.0137C62.9173 55.5281 62.6259 56.2262 62.6245 56.9547V85.9338L84.3219 102.248C85.1388 102.863 86.1349 103.197 87.159 103.197C88.1831 103.197 89.1793 102.863 89.9962 102.248L111.694 85.9338V56.9547Z" fill="white"/>
<path fill-rule="evenodd" clip-rule="evenodd" d="M112.096 56.9556C112.095 56.1219 111.761 55.3228 111.17 54.7338C110.578 54.1449 109.776 53.8142 108.939 53.8144H65.3837C64.9699 53.8137 64.56 53.8943 64.1774 54.0516C63.7948 54.2088 63.447 54.4397 63.1538 54.731C62.8607 55.0222 62.628 55.3682 62.469 55.7492C62.31 56.1301 62.2278 56.5386 62.2271 56.9512V85.9347C62.2262 85.9964 62.2406 86.0573 62.269 86.1121C62.2974 86.1669 62.339 86.2139 62.3899 86.2488C62.3899 86.2488 77.6182 97.7132 84.0802 102.563C84.9656 103.233 86.0466 103.595 87.1581 103.595C88.2695 103.595 89.3505 103.233 90.2359 102.563C96.6961 97.7097 111.933 86.2488 111.933 86.2488C111.984 86.2139 112.026 86.1669 112.054 86.1121C112.083 86.0573 112.097 85.9964 112.096 85.9347V56.9556ZM111.3 56.9556V85.738C109.673 86.9574 95.8368 97.3682 89.7651 101.932C89.0143 102.494 88.1009 102.797 87.162 102.797C86.2232 102.797 85.3098 102.494 84.5589 101.932L63.0244 85.738V56.9556C63.0261 56.3313 63.2755 55.733 63.7183 55.2915C64.1611 54.8501 64.7611 54.6013 65.3873 54.5997H108.944C109.569 54.602 110.168 54.8512 110.61 55.2927C111.051 55.7343 111.299 56.3321 111.3 56.9556Z" fill="black"/>
<path fill-rule="evenodd" clip-rule="evenodd" d="M55.7995 81.3068C55.7995 81.3068 76.3588 96.7674 84.0606 102.549C84.9529 103.221 86.0402 103.584 87.1579 103.584C88.2757 103.584 89.363 103.221 90.2553 102.549C97.9447 96.7674 118.515 81.3068 118.515 81.3068C118.597 81.2412 118.65 81.147 118.664 81.0436C118.678 80.9402 118.651 80.8354 118.59 80.7509C118.526 80.6671 118.432 80.6119 118.327 80.5975C118.222 80.5831 118.116 80.6107 118.032 80.6741C118.032 80.6741 97.473 96.1365 89.781 101.917C89.025 102.486 88.1037 102.794 87.1566 102.794C86.2095 102.794 85.2882 102.486 84.5323 101.917C76.8402 96.1365 56.2818 80.6741 56.2818 80.6741C56.1974 80.6154 56.0934 80.5914 55.9917 80.6073C55.8899 80.6232 55.7983 80.6777 55.7359 80.7594C55.6735 80.841 55.6452 80.9436 55.6569 81.0456C55.6686 81.1477 55.7203 81.2412 55.7995 81.3068Z" fill="white"/>
<path fill-rule="evenodd" clip-rule="evenodd" d="M70.2952 64.4733H87.689C87.7946 64.4733 87.8959 64.4314 87.9706 64.357C88.0453 64.2825 88.0872 64.1815 88.0872 64.0762C88.0872 63.9709 88.0453 63.8699 87.9706 63.7954C87.8959 63.721 87.7946 63.6791 87.689 63.6791H70.2952C70.1896 63.6791 70.0883 63.721 70.0136 63.7954C69.9389 63.8699 69.897 63.9709 69.897 64.0762C69.897 64.1815 69.9389 64.2825 70.0136 64.357C70.0883 64.4314 70.1896 64.4733 70.2952 64.4733Z" fill="#F96D52"/>
<path fill-rule="evenodd" clip-rule="evenodd" d="M70.2706 71.4438H103.728C103.835 71.4438 103.937 71.4016 104.013 71.3264C104.088 71.2512 104.13 71.1492 104.13 71.0428C104.13 70.9364 104.088 70.8344 104.013 70.7592C103.937 70.684 103.835 70.6418 103.728 70.6418H70.2679C70.1613 70.6418 70.059 70.684 69.9835 70.7592C69.9081 70.8344 69.8657 70.9364 69.8657 71.0428C69.8657 71.1492 69.9081 71.2512 69.9835 71.3264C70.059 71.4016 70.1613 71.4438 70.2679 71.4438" fill="#F96D52"/>
<path fill-rule="evenodd" clip-rule="evenodd" d="M70.2702 78.4241H103.728C103.782 78.4267 103.837 78.4182 103.888 78.3992C103.939 78.3802 103.985 78.351 104.025 78.3136C104.064 78.2761 104.095 78.231 104.117 78.1811C104.138 78.1311 104.149 78.0774 104.149 78.0231C104.149 77.9688 104.138 77.915 104.117 77.8651C104.095 77.8152 104.064 77.7701 104.025 77.7326C103.985 77.6951 103.939 77.666 103.888 77.647C103.837 77.628 103.782 77.6195 103.728 77.6221H70.2676C70.1642 77.6269 70.0666 77.6713 69.9951 77.7459C69.9237 77.8206 69.8838 77.9199 69.8838 78.0231C69.8838 78.1263 69.9237 78.2256 69.9951 78.3002C70.0666 78.3749 70.1642 78.4193 70.2676 78.4241" fill="#F96D52"/>
<path fill-rule="evenodd" clip-rule="evenodd" d="M70.2706 85.3903H103.728C103.835 85.3903 103.937 85.3481 104.012 85.273C104.088 85.1979 104.13 85.096 104.13 84.9897C104.13 84.8835 104.088 84.7816 104.012 84.7065C103.937 84.6313 103.835 84.5891 103.728 84.5891H70.268C70.1614 84.5891 70.0592 84.6313 69.9839 84.7065C69.9085 84.7816 69.8662 84.8835 69.8662 84.9897C69.8662 85.096 69.9085 85.1979 69.9839 85.273C70.0592 85.3481 70.1614 85.3903 70.268 85.3903" fill="#F96D52"/>
<path fill-rule="evenodd" clip-rule="evenodd" d="M113.974 107.143L115.715 110.269C115.74 110.315 115.774 110.355 115.815 110.387C115.856 110.42 115.902 110.444 115.952 110.459C116.002 110.473 116.055 110.478 116.106 110.472C116.158 110.466 116.208 110.451 116.254 110.426C116.3 110.401 116.34 110.367 116.373 110.327C116.405 110.286 116.429 110.24 116.444 110.19C116.459 110.14 116.463 110.088 116.458 110.036C116.452 109.984 116.436 109.934 116.411 109.889L114.67 106.754C114.619 106.663 114.533 106.595 114.432 106.566C114.332 106.537 114.223 106.548 114.13 106.597C114.038 106.65 113.97 106.736 113.941 106.839C113.912 106.941 113.924 107.05 113.975 107.144" fill="black"/>
<path fill-rule="evenodd" clip-rule="evenodd" d="M60.6821 51.8821L49.8033 41.0397C49.7664 41.0029 49.7226 40.9738 49.6744 40.9538C49.6262 40.9339 49.5745 40.9237 49.5224 40.9237C49.4702 40.9237 49.4185 40.9339 49.3703 40.9538C49.3221 40.9738 49.2783 41.0029 49.2414 41.0397C49.2045 41.0765 49.1752 41.1202 49.1552 41.1683C49.1353 41.2163 49.125 41.2678 49.125 41.3199C49.125 41.3719 49.1353 41.4234 49.1552 41.4715C49.1752 41.5196 49.2045 41.5632 49.2414 41.6L60.1193 52.4424C60.1562 52.4792 60.2 52.5083 60.2482 52.5283C60.2964 52.5482 60.3481 52.5584 60.4002 52.5584C60.4524 52.5584 60.5041 52.5482 60.5523 52.5283C60.6005 52.5083 60.6443 52.4792 60.6812 52.4424C60.7181 52.4056 60.7474 52.3619 60.7673 52.3138C60.7873 52.2658 60.7976 52.2143 60.7976 52.1622C60.7976 52.1102 60.7873 52.0587 60.7673 52.0106C60.7474 51.9625 60.719 51.9189 60.6821 51.8821Z" fill="#F96D52"/>
<path fill-rule="evenodd" clip-rule="evenodd" d="M65.3782 47.0909L63.2278 39.088C63.1978 38.9896 63.1307 38.9067 63.0406 38.8568C62.9505 38.8068 62.8444 38.7937 62.7448 38.8203C62.6452 38.8469 62.5599 38.911 62.5068 38.9992C62.4538 39.0873 62.4372 39.1925 62.4605 39.2927L64.6109 47.2956C64.6409 47.394 64.708 47.4769 64.7981 47.5268C64.8882 47.5767 64.9943 47.5898 65.0939 47.5632C65.1935 47.5367 65.2788 47.4725 65.3318 47.3844C65.3849 47.2963 65.4015 47.191 65.3782 47.0909Z" fill="#F96D52"/>
<path fill-rule="evenodd" clip-rule="evenodd" d="M55.5163 56.3556L46.8437 54.0385C46.7433 54.0153 46.6377 54.0319 46.5493 54.0848C46.4609 54.1377 46.3966 54.2227 46.37 54.322C46.3433 54.4213 46.3564 54.5271 46.4065 54.6169C46.4566 54.7068 46.5397 54.7737 46.6384 54.8035L55.3109 57.1206C55.3612 57.1371 55.4143 57.1434 55.4671 57.1391C55.5198 57.1348 55.5712 57.1201 55.6181 57.0957C55.6651 57.0714 55.7067 57.038 55.7405 56.9974C55.7744 56.9568 55.7997 56.9099 55.8151 56.8594C55.8305 56.8089 55.8356 56.7558 55.8301 56.7034C55.8247 56.6509 55.8088 56.6 55.7833 56.5537C55.7579 56.5074 55.7234 56.4667 55.682 56.4339C55.6405 56.4011 55.5929 56.3769 55.5419 56.3627L55.5163 56.3556Z" fill="#F96D52"/>
<path fill-rule="evenodd" clip-rule="evenodd" d="M175.024 73.7803C175.826 73.8827 176.628 73.9506 177.423 73.9929C177.474 73.9967 177.525 73.9903 177.574 73.9742C177.622 73.9582 177.667 73.9327 177.706 73.8993C177.745 73.8658 177.777 73.8251 177.8 73.7794C177.823 73.7337 177.837 73.6839 177.84 73.633V73.6188C177.845 73.5141 177.808 73.4118 177.738 73.3339C177.667 73.256 177.569 73.2087 177.464 73.2024C176.687 73.168 175.912 73.0921 175.118 72.9977C175.068 72.9899 175.016 72.9922 174.966 73.0044C174.917 73.0165 174.87 73.0384 174.829 73.0687C174.788 73.0989 174.753 73.137 174.727 73.1807C174.701 73.2244 174.683 73.2728 174.676 73.3232V73.3382C174.664 73.4435 174.695 73.549 174.761 73.6317C174.828 73.7143 174.924 73.7674 175.03 73.7794M182.247 73.8818C183.058 73.7935 183.86 73.6859 184.636 73.5412C184.739 73.5243 184.831 73.4674 184.892 73.3828C184.953 73.2983 184.978 73.1931 184.962 73.0903V73.0824C184.941 72.9799 184.882 72.8892 184.796 72.8291C184.711 72.769 184.605 72.744 184.501 72.7594C183.734 72.9041 182.958 73.0147 182.172 73.0912C182.068 73.1023 181.972 73.1541 181.906 73.2352C181.84 73.3163 181.808 73.4203 181.818 73.5244C181.833 73.6271 181.886 73.7204 181.967 73.7859C182.047 73.8513 182.15 73.884 182.254 73.8774M168.006 72.1082C168.773 72.38 169.542 72.6182 170.307 72.8309C170.408 72.8554 170.515 72.84 170.606 72.7877C170.696 72.7354 170.763 72.6504 170.792 72.5503C170.819 72.4499 170.806 72.3427 170.754 72.2522C170.703 72.1617 170.617 72.0953 170.516 72.0677H170.509C169.769 71.8638 169.017 71.6265 168.267 71.3618C168.167 71.3286 168.059 71.3358 167.965 71.3819C167.871 71.428 167.799 71.5092 167.764 71.608C167.746 71.6556 167.738 71.7064 167.74 71.7572C167.742 71.8081 167.754 71.8581 167.775 71.9044C167.796 71.9507 167.826 71.9924 167.863 72.027C167.901 72.0617 167.945 72.0887 167.993 72.1065H168.002M189.303 72.3112C190.07 72.0465 190.821 71.75 191.555 71.435C191.604 71.4138 191.647 71.3834 191.683 71.3454C191.72 71.3074 191.748 71.2627 191.767 71.2137C191.786 71.1648 191.795 71.1125 191.794 71.0601C191.793 71.0076 191.781 70.9558 191.76 70.9078C191.739 70.8598 191.708 70.8164 191.67 70.7801C191.632 70.7439 191.587 70.7155 191.538 70.6965C191.489 70.6775 191.437 70.6684 191.384 70.6696C191.332 70.6708 191.28 70.6823 191.231 70.7035C190.523 71.0185 189.789 71.3071 189.047 71.563C188.997 71.5804 188.951 71.6074 188.912 71.6424C188.873 71.6775 188.841 71.7199 188.818 71.7673C188.795 71.8147 188.782 71.866 188.779 71.9185C188.776 71.9709 188.784 72.0234 188.801 72.073C188.818 72.1214 188.845 72.166 188.879 72.2042C188.914 72.2425 188.955 72.2736 189.002 72.2958C189.048 72.318 189.098 72.3309 189.15 72.3337C189.201 72.3365 189.253 72.3291 189.301 72.3121M161.449 69.1056C162.157 69.5141 162.865 69.8882 163.573 70.2368C163.618 70.2607 163.667 70.2756 163.718 70.2805C163.769 70.2854 163.82 70.2803 163.869 70.2655C163.918 70.2507 163.963 70.2264 164.003 70.1941C164.042 70.1617 164.075 70.122 164.099 70.0771L164.104 70.0665C164.15 69.9717 164.157 69.863 164.124 69.7631C164.091 69.6633 164.02 69.5801 163.927 69.5309C163.234 69.1903 162.544 68.8162 161.846 68.4253C161.801 68.3984 161.752 68.3805 161.701 68.3725C161.65 68.3645 161.598 68.3666 161.548 68.3788C161.497 68.3909 161.45 68.4128 161.408 68.4432C161.366 68.4736 161.331 68.5119 161.304 68.5559C161.277 68.5999 161.259 68.6488 161.251 68.6998C161.243 68.7508 161.245 68.8028 161.257 68.8529C161.269 68.9031 161.291 68.9503 161.322 68.992C161.352 69.0337 161.391 69.069 161.435 69.0959L161.453 69.1056M195.805 69.1568C196.488 68.7156 197.144 68.2471 197.777 67.7618C197.822 67.7317 197.861 67.6926 197.891 67.6467C197.921 67.6009 197.941 67.5494 197.949 67.4955C197.958 67.4417 197.956 67.3865 197.942 67.3337C197.928 67.2808 197.904 67.2314 197.87 67.1885C197.836 67.1456 197.793 67.1102 197.745 67.0845C197.697 67.0588 197.644 67.0434 197.589 67.0392C197.535 67.035 197.48 67.0422 197.428 67.0603C197.376 67.0783 197.329 67.1069 197.289 67.1441C196.675 67.6118 196.034 68.0627 195.37 68.488C195.28 68.5442 195.216 68.6339 195.192 68.7372C195.169 68.8406 195.187 68.9491 195.243 69.039C195.3 69.1288 195.39 69.1927 195.493 69.2164C195.597 69.2402 195.706 69.2219 195.796 69.1656L195.804 69.1603M155.48 65.1544C156.034 65.5197 156.589 65.9115 157.143 66.32C157.237 66.3791 157.32 66.4471 157.417 66.5071C157.459 66.5372 157.507 66.5588 157.557 66.5706C157.608 66.5824 157.66 66.5842 157.711 66.5759C157.762 66.5676 157.811 66.5493 157.855 66.5221C157.899 66.4949 157.937 66.4594 157.967 66.4175C157.998 66.3756 158.019 66.3282 158.031 66.278C158.043 66.2278 158.045 66.1757 158.036 66.1248C158.028 66.0739 158.01 66.0251 157.982 65.9812C157.955 65.9373 157.919 65.8993 157.877 65.8691C157.789 65.8012 157.707 65.7412 157.621 65.6732C157.049 65.2562 156.481 64.865 155.916 64.4997C155.828 64.4422 155.722 64.4214 155.62 64.4421C155.517 64.4628 155.427 64.5232 155.37 64.61C155.312 64.6968 155.291 64.803 155.312 64.9051C155.332 65.0072 155.393 65.0969 155.48 65.1544ZM201.34 64.5253C201.895 63.9294 202.418 63.3171 202.909 62.6882C202.971 62.6043 202.997 62.4999 202.983 62.397C202.969 62.294 202.916 62.2005 202.834 62.1359C202.793 62.1038 202.746 62.0801 202.696 62.0661C202.646 62.0521 202.594 62.048 202.542 62.0541C202.491 62.0603 202.441 62.0765 202.396 62.1019C202.35 62.1273 202.31 62.1613 202.278 62.2021C201.8 62.8144 201.298 63.41 200.761 63.988C200.69 64.0661 200.654 64.1687 200.658 64.2736C200.663 64.3785 200.709 64.4774 200.785 64.5491C200.823 64.5837 200.868 64.6105 200.916 64.628C200.965 64.6454 201.016 64.6532 201.068 64.6508C201.119 64.6484 201.17 64.6359 201.216 64.6141C201.263 64.5923 201.305 64.5615 201.339 64.5235M122.136 64.2085C122.786 63.783 123.461 63.3967 124.157 63.0518C124.204 63.0287 124.245 62.9966 124.279 62.9573C124.313 62.9181 124.339 62.8725 124.355 62.8232C124.371 62.7739 124.377 62.7219 124.373 62.6702C124.368 62.6186 124.354 62.5683 124.33 62.5224V62.518C124.281 62.4249 124.197 62.3544 124.097 62.3215C123.997 62.2886 123.888 62.2958 123.793 62.3415C123.067 62.7054 122.363 63.1114 121.685 63.5574C121.643 63.5853 121.606 63.6214 121.578 63.6635C121.549 63.7056 121.53 63.7528 121.519 63.8026C121.509 63.8524 121.509 63.9036 121.519 63.9535C121.529 64.0033 121.548 64.0507 121.577 64.093L121.583 64.1018C121.64 64.1881 121.729 64.2483 121.83 64.2691C121.932 64.29 122.038 64.2698 122.124 64.213L122.138 64.2041M149.223 61.8738C149.939 62.1544 150.655 62.4782 151.381 62.8268C151.476 62.8736 151.586 62.8808 151.686 62.8469C151.787 62.813 151.869 62.7407 151.916 62.6459C151.963 62.5511 151.971 62.4416 151.937 62.3415C151.903 62.2414 151.83 62.1589 151.735 62.1121C150.993 61.7591 150.25 61.4318 149.523 61.1415C149.475 61.1219 149.425 61.1119 149.374 61.1118C149.323 61.1117 149.272 61.1217 149.225 61.1411C149.178 61.1605 149.135 61.189 149.099 61.225C149.063 61.2609 149.034 61.3036 149.015 61.3506V61.363C148.975 61.459 148.976 61.5667 149.016 61.6623C149.057 61.7579 149.133 61.8336 149.23 61.873M128.508 61.2606C129.216 61.0312 129.967 60.8097 130.769 60.6138C130.871 60.5874 130.96 60.5216 131.014 60.4307C131.068 60.3398 131.084 60.2312 131.059 60.1285C131.033 60.0274 130.969 59.9403 130.879 59.8862C130.79 59.832 130.683 59.8151 130.581 59.8391C129.754 60.043 128.988 60.2724 128.261 60.5027C128.211 60.5189 128.165 60.5447 128.125 60.5787C128.085 60.6128 128.052 60.6543 128.028 60.7009C127.981 60.795 127.972 60.9043 128.005 61.0047C128.038 61.1051 128.109 61.1884 128.204 61.2362C128.298 61.284 128.408 61.2934 128.508 61.2606ZM142.439 60.0244C143.198 60.1347 143.965 60.2794 144.75 60.4656C144.853 60.4891 144.961 60.4711 145.051 60.4153C145.14 60.3596 145.204 60.2708 145.228 60.1682C145.25 60.0659 145.231 59.9592 145.175 59.8703C145.12 59.7815 145.032 59.7175 144.931 59.6918C144.129 59.5047 143.338 59.36 142.558 59.2409C142.506 59.2293 142.453 59.2281 142.4 59.2375C142.348 59.2469 142.298 59.2667 142.254 59.2956C142.209 59.3246 142.171 59.3622 142.141 59.4061C142.111 59.4501 142.091 59.4995 142.081 59.5515C142.071 59.6035 142.071 59.657 142.082 59.7088C142.093 59.7607 142.114 59.8098 142.144 59.8533C142.175 59.8969 142.213 59.9339 142.258 59.9622C142.303 59.9905 142.353 60.0096 142.406 60.0182C142.417 60.0209 142.427 60.0236 142.439 60.0244ZM135.404 59.8312C136.163 59.7632 136.948 59.7209 137.758 59.7121C137.862 59.7076 137.961 59.6638 138.034 59.5896C138.107 59.5154 138.149 59.4163 138.151 59.3124C138.149 59.2077 138.106 59.1079 138.031 59.0347C137.956 58.9614 137.855 58.9208 137.75 58.9215C136.923 58.9303 136.112 58.9727 135.336 59.0406C135.233 59.0496 135.138 59.0987 135.072 59.1773C135.006 59.2558 134.973 59.3574 134.982 59.4597V59.4738C134.993 59.5764 135.044 59.6706 135.123 59.7364C135.203 59.8023 135.305 59.8347 135.408 59.8268" fill="black"/>
<path fill-rule="evenodd" clip-rule="evenodd" d="M125.127 187.914C125.903 187.959 126.705 187.983 127.524 187.991C127.576 187.992 127.627 187.983 127.675 187.964C127.723 187.946 127.767 187.918 127.805 187.882C127.842 187.846 127.872 187.804 127.892 187.757C127.913 187.71 127.924 187.659 127.925 187.607V187.601C127.926 187.496 127.885 187.395 127.811 187.321C127.738 187.246 127.637 187.203 127.532 187.201C126.722 187.192 125.939 187.167 125.169 187.125C125.064 187.119 124.962 187.156 124.883 187.226C124.805 187.295 124.757 187.393 124.751 187.498C124.743 187.6 124.775 187.701 124.842 187.779C124.908 187.857 125.003 187.906 125.105 187.914H125.125M132.316 187.826C133.101 187.767 133.894 187.69 134.706 187.597C134.758 187.591 134.808 187.576 134.854 187.551C134.901 187.526 134.941 187.493 134.974 187.452C135.007 187.411 135.031 187.365 135.046 187.315C135.061 187.264 135.066 187.212 135.06 187.16V187.156C135.048 187.05 134.994 186.954 134.912 186.888C134.829 186.822 134.723 186.791 134.617 186.803C133.824 186.896 133.039 186.973 132.262 187.032C132.158 187.039 132.061 187.087 131.992 187.166C131.923 187.245 131.888 187.347 131.895 187.451V187.458C131.905 187.562 131.955 187.659 132.035 187.727C132.114 187.795 132.217 187.829 132.322 187.824M117.985 186.99C118.754 187.15 119.546 187.296 120.357 187.424C120.461 187.439 120.567 187.412 120.651 187.35C120.736 187.288 120.793 187.195 120.809 187.091C120.825 186.988 120.799 186.883 120.737 186.799C120.675 186.714 120.583 186.658 120.479 186.642C119.677 186.514 118.909 186.377 118.15 186.216C118.047 186.195 117.94 186.216 117.853 186.273C117.765 186.33 117.703 186.42 117.681 186.522C117.67 186.573 117.669 186.625 117.679 186.676C117.688 186.726 117.707 186.775 117.735 186.818C117.763 186.862 117.8 186.899 117.842 186.929C117.885 186.958 117.933 186.979 117.984 186.99M139.454 186.879C140.223 186.735 141.008 186.572 141.8 186.395C141.901 186.374 141.989 186.314 142.046 186.228C142.102 186.141 142.122 186.037 142.1 185.936V185.926C142.078 185.824 142.017 185.735 141.929 185.677C141.841 185.62 141.734 185.6 141.631 185.62C140.846 185.797 140.07 185.951 139.302 186.097C139.251 186.106 139.203 186.126 139.159 186.154C139.116 186.182 139.078 186.218 139.049 186.261C139.02 186.304 138.999 186.351 138.988 186.402C138.977 186.453 138.977 186.505 138.986 186.556C139.006 186.66 139.066 186.753 139.154 186.813C139.242 186.874 139.349 186.897 139.454 186.879ZM111.074 184.937C111.808 185.228 112.559 185.499 113.343 185.754C113.392 185.771 113.444 185.777 113.496 185.773C113.548 185.769 113.598 185.755 113.644 185.732C113.691 185.709 113.732 185.676 113.766 185.637C113.8 185.598 113.825 185.553 113.842 185.503C113.858 185.454 113.864 185.402 113.86 185.351C113.856 185.299 113.842 185.249 113.819 185.203C113.796 185.157 113.763 185.115 113.724 185.082C113.685 185.048 113.639 185.022 113.59 185.006C112.822 184.752 112.08 184.488 111.372 184.199C111.273 184.162 111.162 184.165 111.065 184.208C110.968 184.251 110.891 184.33 110.852 184.428C110.833 184.476 110.823 184.527 110.824 184.578C110.824 184.63 110.835 184.68 110.855 184.728C110.876 184.775 110.905 184.817 110.942 184.853C110.979 184.889 111.023 184.917 111.07 184.936M146.438 185.252L148.739 184.635C148.789 184.622 148.835 184.599 148.877 184.568C148.918 184.537 148.952 184.498 148.978 184.453C149.005 184.409 149.022 184.359 149.029 184.308C149.035 184.257 149.032 184.205 149.019 184.156V184.151C148.992 184.05 148.926 183.964 148.835 183.911C148.744 183.858 148.636 183.843 148.534 183.87C147.757 184.082 146.99 184.286 146.233 184.482C146.131 184.51 146.045 184.576 145.992 184.667C145.939 184.758 145.924 184.866 145.951 184.968C145.979 185.07 146.045 185.157 146.136 185.211C146.227 185.265 146.336 185.281 146.439 185.257M153.341 183.352C154.093 183.139 154.861 182.918 155.628 182.695C155.73 182.666 155.816 182.598 155.867 182.506C155.918 182.413 155.931 182.304 155.901 182.203C155.872 182.101 155.804 182.016 155.711 181.965C155.618 181.914 155.509 181.901 155.408 181.93C154.639 182.152 153.881 182.371 153.121 182.594C153.021 182.62 152.936 182.685 152.885 182.773C152.833 182.862 152.819 182.968 152.845 183.067V183.077C152.873 183.178 152.94 183.264 153.032 183.316C153.123 183.367 153.232 183.381 153.333 183.353H153.338M104.638 181.702C105.294 182.119 105.985 182.519 106.71 182.919C106.803 182.966 106.911 182.976 107.011 182.946C107.112 182.917 107.196 182.849 107.247 182.758C107.273 182.713 107.289 182.664 107.296 182.613C107.302 182.562 107.298 182.51 107.285 182.46C107.271 182.411 107.247 182.364 107.216 182.324C107.184 182.283 107.145 182.249 107.1 182.224H107.094C106.377 181.834 105.704 181.441 105.059 181.035C104.969 180.98 104.862 180.962 104.759 180.986C104.657 181.01 104.568 181.074 104.513 181.163C104.457 181.249 104.438 181.354 104.46 181.455C104.482 181.556 104.543 181.643 104.63 181.699L104.641 181.706M160.208 181.353C160.959 181.132 161.728 180.901 162.485 180.672C162.587 180.643 162.673 180.576 162.725 180.484C162.776 180.392 162.789 180.284 162.761 180.182C162.728 180.084 162.658 180.001 162.566 179.952C162.474 179.903 162.367 179.89 162.266 179.918C161.499 180.147 160.739 180.369 159.979 180.599C159.881 180.625 159.798 180.689 159.747 180.776C159.696 180.864 159.682 180.968 159.708 181.066L159.714 181.082C159.728 181.133 159.752 181.18 159.784 181.221C159.816 181.262 159.857 181.296 159.902 181.321C159.948 181.347 159.998 181.363 160.05 181.369C160.102 181.375 160.155 181.371 160.205 181.357M167.055 179.327C167.815 179.098 168.575 178.876 169.342 178.646C169.392 178.631 169.438 178.606 169.479 178.573C169.519 178.541 169.552 178.5 169.577 178.454C169.601 178.408 169.617 178.358 169.622 178.307C169.627 178.255 169.622 178.203 169.607 178.153C169.592 178.103 169.567 178.057 169.534 178.017C169.501 177.977 169.46 177.943 169.414 177.919C169.368 177.894 169.318 177.879 169.266 177.874C169.214 177.869 169.162 177.874 169.112 177.889C168.353 178.12 167.585 178.341 166.825 178.57C166.725 178.601 166.64 178.67 166.59 178.762C166.541 178.855 166.53 178.963 166.561 179.064C166.591 179.164 166.66 179.248 166.753 179.298C166.846 179.347 166.955 179.358 167.055 179.327ZM98.9137 177.321C99.4677 177.839 100.064 178.374 100.722 178.909C100.804 178.971 100.907 179 101.009 178.988C101.112 178.977 101.206 178.926 101.272 178.847C101.338 178.768 101.371 178.667 101.363 178.564C101.356 178.462 101.31 178.366 101.233 178.297C100.584 177.767 99.9943 177.251 99.4633 176.749C99.3882 176.677 99.2876 176.638 99.1834 176.64C99.0792 176.641 98.98 176.684 98.9075 176.759L98.9005 176.767C98.8651 176.803 98.8372 176.845 98.8183 176.892C98.7995 176.939 98.79 176.988 98.7905 177.039C98.791 177.089 98.8014 177.139 98.8212 177.185C98.841 177.231 98.8697 177.273 98.9058 177.309L98.9173 177.319M173.917 177.309L176.204 176.646C176.305 176.618 176.391 176.551 176.442 176.459C176.494 176.368 176.507 176.26 176.478 176.16C176.45 176.059 176.383 175.974 176.291 175.922C176.2 175.871 176.092 175.858 175.991 175.886H175.982C175.215 176.108 174.455 176.32 173.697 176.543C173.596 176.573 173.511 176.642 173.459 176.734C173.408 176.826 173.395 176.934 173.423 177.036C173.437 177.086 173.461 177.133 173.494 177.174C173.527 177.215 173.567 177.249 173.613 177.274C173.659 177.299 173.709 177.315 173.761 177.321C173.813 177.327 173.866 177.322 173.916 177.308M180.784 175.351C181.551 175.138 182.311 174.933 183.078 174.721C183.18 174.695 183.266 174.63 183.319 174.54C183.372 174.45 183.388 174.343 183.362 174.242C183.333 174.142 183.266 174.056 183.175 174.004C183.084 173.951 182.976 173.936 182.874 173.961L180.573 174.6C180.474 174.625 180.389 174.688 180.337 174.775C180.284 174.862 180.269 174.967 180.293 175.066L180.299 175.083C180.312 175.133 180.335 175.179 180.366 175.219C180.398 175.26 180.437 175.294 180.481 175.319C180.525 175.345 180.575 175.361 180.625 175.368C180.676 175.375 180.728 175.371 180.777 175.358H180.786M94.2376 171.819C94.6642 172.51 95.1342 173.172 95.6447 173.803C95.712 173.884 95.8087 173.936 95.914 173.947C96.0193 173.958 96.1247 173.928 96.2075 173.862C96.2478 173.83 96.2814 173.79 96.3062 173.745C96.331 173.7 96.3467 173.65 96.3523 173.599C96.3579 173.548 96.3533 173.496 96.3388 173.447C96.3243 173.398 96.3001 173.352 96.2677 173.311C95.7811 172.709 95.3311 172.078 94.9199 171.421C94.8936 171.377 94.8587 171.338 94.8173 171.307C94.7758 171.275 94.7286 171.253 94.6783 171.239C94.628 171.226 94.5756 171.223 94.5241 171.231C94.4727 171.238 94.4231 171.255 94.3783 171.281C94.3335 171.307 94.2944 171.342 94.263 171.384C94.2317 171.425 94.2089 171.472 94.1958 171.522C94.1827 171.572 94.1797 171.624 94.1869 171.676C94.1941 171.727 94.2113 171.777 94.2376 171.821M187.689 173.514L189.99 172.929C190.091 172.904 190.179 172.84 190.233 172.752C190.288 172.663 190.305 172.556 190.28 172.455C190.254 172.352 190.188 172.265 190.097 172.21C190.007 172.156 189.898 172.14 189.795 172.164C189.028 172.352 188.258 172.548 187.484 172.752C187.383 172.777 187.296 172.841 187.243 172.93C187.189 173.019 187.173 173.125 187.198 173.226V173.238C187.226 173.339 187.293 173.424 187.383 173.476C187.474 173.528 187.581 173.543 187.683 173.518M194.599 171.821C195.376 171.645 196.149 171.468 196.92 171.292C196.971 171.282 197.019 171.262 197.062 171.233C197.105 171.204 197.142 171.167 197.17 171.124C197.199 171.081 197.219 171.033 197.229 170.983C197.238 170.932 197.238 170.88 197.228 170.829V170.823C197.204 170.72 197.14 170.631 197.051 170.574C196.962 170.517 196.854 170.496 196.75 170.517C195.983 170.687 195.206 170.87 194.421 171.046C194.37 171.058 194.322 171.08 194.279 171.11C194.237 171.14 194.2 171.178 194.173 171.222C194.145 171.266 194.126 171.315 194.117 171.367C194.109 171.418 194.11 171.47 194.122 171.521C194.133 171.572 194.155 171.62 194.185 171.662C194.215 171.705 194.254 171.741 194.298 171.769C194.342 171.796 194.391 171.815 194.443 171.824C194.494 171.832 194.547 171.831 194.598 171.819M236.755 170.06C237.508 170.307 238.24 170.589 238.958 170.884C239.005 170.906 239.056 170.918 239.107 170.92C239.159 170.923 239.211 170.915 239.259 170.897C239.308 170.879 239.352 170.852 239.391 170.818C239.429 170.783 239.46 170.741 239.481 170.694C239.503 170.647 239.516 170.597 239.518 170.545C239.52 170.494 239.512 170.442 239.494 170.394C239.477 170.345 239.45 170.301 239.415 170.263C239.38 170.225 239.338 170.194 239.291 170.172L239.265 170.161C238.54 169.847 237.78 169.567 237.013 169.312C236.965 169.294 236.913 169.287 236.862 169.289C236.811 169.292 236.76 169.304 236.714 169.326C236.667 169.348 236.626 169.379 236.591 169.417C236.557 169.455 236.53 169.499 236.513 169.547V169.559C236.481 169.658 236.489 169.766 236.535 169.859C236.581 169.953 236.662 170.025 236.761 170.06M201.582 170.332C202.367 170.179 203.141 170.035 203.918 169.898C204.022 169.88 204.115 169.821 204.176 169.735C204.237 169.649 204.261 169.542 204.243 169.438C204.224 169.335 204.166 169.242 204.079 169.182C203.993 169.121 203.886 169.097 203.782 169.115C202.997 169.261 202.22 169.405 201.436 169.556C201.385 169.565 201.337 169.583 201.294 169.61C201.251 169.637 201.213 169.672 201.183 169.714C201.154 169.755 201.133 169.802 201.121 169.852C201.11 169.902 201.109 169.953 201.117 170.004V170.015C201.138 170.117 201.198 170.207 201.284 170.266C201.37 170.325 201.476 170.347 201.579 170.328M208.608 169.129C209.405 169.011 210.187 168.909 210.962 168.806C211.014 168.8 211.064 168.783 211.109 168.757C211.154 168.731 211.193 168.697 211.225 168.656C211.257 168.615 211.28 168.568 211.294 168.518C211.307 168.468 211.311 168.416 211.304 168.364C211.297 168.313 211.281 168.263 211.255 168.218C211.229 168.173 211.194 168.134 211.153 168.102C211.112 168.071 211.065 168.047 211.015 168.034C210.965 168.02 210.912 168.017 210.861 168.024C210.076 168.117 209.29 168.228 208.497 168.346C208.445 168.353 208.396 168.37 208.351 168.395C208.306 168.421 208.266 168.455 208.234 168.496C208.203 168.537 208.179 168.584 208.166 168.634C208.152 168.684 208.149 168.736 208.155 168.788C208.17 168.893 208.226 168.987 208.311 169.051C208.396 169.115 208.503 169.144 208.608 169.129ZM229.866 168.499C230.662 168.61 231.437 168.738 232.204 168.882C232.255 168.892 232.307 168.891 232.358 168.881C232.408 168.87 232.456 168.85 232.499 168.821C232.542 168.791 232.579 168.754 232.607 168.711C232.635 168.668 232.655 168.62 232.664 168.569C232.683 168.465 232.66 168.358 232.601 168.27C232.542 168.183 232.451 168.122 232.347 168.1C231.572 167.956 230.778 167.829 229.977 167.717C229.873 167.704 229.769 167.732 229.686 167.795C229.603 167.858 229.549 167.951 229.534 168.054C229.519 168.157 229.546 168.261 229.608 168.345C229.67 168.428 229.762 168.484 229.865 168.5M215.688 168.313C216.485 168.246 217.275 168.195 218.049 168.152C218.154 168.147 218.253 168.1 218.324 168.021C218.394 167.943 218.431 167.84 218.425 167.735C218.424 167.684 218.412 167.634 218.391 167.587C218.37 167.541 218.34 167.499 218.302 167.464C218.265 167.429 218.221 167.402 218.173 167.384C218.126 167.366 218.075 167.357 218.023 167.359H218.007C217.222 167.403 216.42 167.453 215.617 167.521C215.512 167.53 215.415 167.579 215.346 167.658C215.278 167.738 215.243 167.841 215.251 167.946C215.261 168.052 215.312 168.149 215.394 168.218C215.475 168.286 215.58 168.32 215.686 168.311M222.792 168.032C223.588 168.032 224.378 168.057 225.155 168.091C225.261 168.096 225.364 168.058 225.442 167.987C225.519 167.915 225.566 167.816 225.57 167.711C225.574 167.605 225.536 167.503 225.465 167.425C225.393 167.348 225.294 167.302 225.188 167.297C224.403 167.263 223.601 167.238 222.792 167.238C222.742 167.238 222.691 167.247 222.644 167.266C222.596 167.284 222.553 167.312 222.517 167.348C222.48 167.383 222.451 167.425 222.431 167.472C222.411 167.519 222.4 167.569 222.4 167.619V167.63C222.399 167.735 222.44 167.836 222.514 167.91C222.587 167.985 222.687 168.028 222.792 168.03" fill="#F96D52"/>
<path fill-rule="evenodd" clip-rule="evenodd" d="M119.79 168.721C119.346 168.722 118.912 168.854 118.543 169.101C118.174 169.348 117.887 169.698 117.718 170.108C117.548 170.517 117.505 170.968 117.592 171.402C117.68 171.836 117.895 172.235 118.209 172.548C118.524 172.861 118.925 173.073 119.36 173.159C119.796 173.245 120.248 173.2 120.658 173.029C121.068 172.859 121.419 172.572 121.665 172.203C121.911 171.834 122.043 171.401 122.042 170.958C122.042 170.664 121.983 170.372 121.87 170.101C121.756 169.829 121.59 169.582 121.381 169.374C121.172 169.166 120.924 169.001 120.651 168.889C120.378 168.777 120.085 168.72 119.79 168.721ZM119.79 169.515C120.077 169.514 120.359 169.598 120.598 169.757C120.838 169.916 121.025 170.142 121.135 170.406C121.246 170.671 121.276 170.962 121.22 171.244C121.165 171.525 121.027 171.784 120.824 171.987C120.621 172.19 120.363 172.329 120.081 172.386C119.799 172.442 119.506 172.414 119.24 172.305C118.974 172.196 118.747 172.011 118.586 171.773C118.426 171.535 118.34 171.255 118.339 170.968V170.961C118.34 170.578 118.493 170.21 118.765 169.939C119.037 169.668 119.405 169.515 119.79 169.515Z" fill="#F96D52"/>
<path fill-rule="evenodd" clip-rule="evenodd" d="M219.904 107.62C219.558 107.62 219.22 107.722 218.932 107.914C218.645 108.105 218.42 108.377 218.288 108.696C218.155 109.014 218.12 109.365 218.188 109.703C218.255 110.041 218.421 110.352 218.666 110.596C218.91 110.84 219.222 111.006 219.561 111.074C219.9 111.141 220.252 111.107 220.571 110.975C220.891 110.843 221.164 110.62 221.356 110.333C221.549 110.047 221.651 109.71 221.652 109.365C221.652 109.136 221.607 108.909 221.519 108.698C221.431 108.486 221.303 108.294 221.14 108.132C220.978 107.97 220.786 107.842 220.574 107.754C220.362 107.666 220.134 107.621 219.905 107.621L219.904 107.62ZM219.904 108.414C220.158 108.415 220.401 108.517 220.581 108.696C220.76 108.876 220.86 109.119 220.86 109.373C220.859 109.626 220.758 109.869 220.578 110.048C220.398 110.227 220.154 110.327 219.9 110.327C219.646 110.327 219.402 110.227 219.223 110.048C219.043 109.869 218.941 109.626 218.941 109.373C218.941 109.119 219.041 108.876 219.22 108.696C219.399 108.517 219.643 108.415 219.897 108.414H219.904Z" fill="black"/>
<path fill-rule="evenodd" clip-rule="evenodd" d="M207.377 90.3756L217.888 85.5227C217.982 85.4759 218.055 85.3951 218.091 85.2967C218.128 85.1983 218.125 85.0897 218.084 84.9932C218.063 84.9459 218.032 84.9032 217.995 84.8675C217.957 84.8319 217.913 84.804 217.864 84.7855C217.816 84.7669 217.764 84.7581 217.712 84.7596C217.66 84.761 217.609 84.7727 217.562 84.7938H217.553L207.044 89.6468C206.997 89.6687 206.955 89.6996 206.92 89.7377C206.885 89.7759 206.858 89.8205 206.84 89.8691C206.822 89.9177 206.814 89.9693 206.817 90.0209C206.819 90.0725 206.832 90.1232 206.854 90.17V90.1762C206.896 90.2689 206.974 90.3411 207.069 90.377C207.165 90.4129 207.271 90.4095 207.364 90.3677H207.373" fill="#F96D52"/>
<path fill-rule="evenodd" clip-rule="evenodd" d="M81.1243 148.763C81.0578 148.725 80.9815 148.707 80.905 148.712C80.8285 148.717 80.7552 148.744 80.6942 148.791C80.6333 148.837 80.5874 148.9 80.5624 148.973C80.5373 149.045 80.5342 149.123 80.5535 149.197L85.6075 170.122C85.6227 170.18 85.6514 170.235 85.6911 170.281C85.7309 170.327 85.7807 170.363 85.8367 170.386C85.893 170.412 85.9546 170.423 86.0163 170.419C86.0779 170.416 86.1377 170.397 86.1906 170.365L95.2092 165.178L103.916 161.941C103.987 161.915 104.048 161.869 104.093 161.809C104.138 161.748 104.164 161.676 104.169 161.601C104.175 161.526 104.16 161.45 104.124 161.383C104.089 161.316 104.035 161.261 103.969 161.224L81.1243 148.763ZM81.5322 149.885C81.5322 149.885 98.9393 159.385 102.823 161.506L94.9004 164.444C94.8791 164.451 94.8591 164.461 94.8411 164.475L86.257 169.416L81.5322 149.885Z" fill="black"/>
<path fill-rule="evenodd" clip-rule="evenodd" d="M213.483 43.2632C213.502 43.1888 213.498 43.1106 213.473 43.038C213.448 42.9655 213.402 42.9018 213.341 42.855C213.28 42.8081 213.207 42.78 213.13 42.7741C213.054 42.7683 212.977 42.785 212.909 42.8221L193.689 53.308C193.624 53.347 193.57 53.4028 193.534 53.4696C193.498 53.5364 193.481 53.6116 193.484 53.6874C193.491 53.7636 193.52 53.8361 193.567 53.8967C193.614 53.9572 193.677 54.0033 193.749 54.0297L201.068 56.7456L208.647 61.1088C208.701 61.1399 208.76 61.1583 208.822 61.1626C208.883 61.1669 208.945 61.1569 209.001 61.1335C209.058 61.1091 209.108 61.0715 209.147 61.0239C209.186 60.9763 209.213 60.9201 209.226 60.86L213.483 43.2632ZM212.504 43.9471L208.578 60.1577L201.433 56.0432C201.414 56.0291 201.393 56.0187 201.37 56.0124L194.836 53.5885L212.504 43.9471Z" fill="#F96D52"/>
<path fill-rule="evenodd" clip-rule="evenodd" d="M95.136 164.506L81.5732 149.236C81.5399 149.197 81.4992 149.165 81.4535 149.142C81.4077 149.119 81.3579 149.105 81.3068 149.101C81.2557 149.097 81.2043 149.103 81.1555 149.119C81.1068 149.135 81.0617 149.16 81.0228 149.193H81.0175C80.9381 149.263 80.8897 149.361 80.8827 149.467C80.8757 149.572 80.9108 149.676 80.9803 149.755L94.5414 165.026C94.5751 165.065 94.6162 165.096 94.6621 165.119C94.7081 165.141 94.7581 165.155 94.8092 165.158C94.8604 165.161 94.9117 165.154 94.9601 165.138C95.0086 165.121 95.0534 165.095 95.0918 165.061L95.0971 165.057C95.1756 164.992 95.2251 164.899 95.2348 164.798C95.2444 164.697 95.2133 164.596 95.1484 164.518L95.1343 164.502" fill="black"/>
<path fill-rule="evenodd" clip-rule="evenodd" d="M201.7 56.6018L213.103 43.7538C213.173 43.6757 213.209 43.5732 213.204 43.4686C213.198 43.364 213.152 43.2657 213.074 43.1953C212.994 43.127 212.89 43.0927 212.785 43.0996C212.68 43.1065 212.582 43.1542 212.512 43.2324L201.096 56.0803C201.027 56.1594 200.991 56.2628 200.998 56.3677C201.005 56.4726 201.054 56.5704 201.133 56.6397C201.213 56.709 201.316 56.744 201.421 56.737C201.527 56.7301 201.625 56.6818 201.694 56.6027" fill="#F96D52"/>
<path fill-rule="evenodd" clip-rule="evenodd" d="M94.336 164.854L92.0157 169.583L90.2962 167.507C90.2285 167.426 90.1319 167.375 90.0268 167.364C89.9217 167.353 89.8165 167.383 89.7334 167.448C89.6929 167.481 89.6594 167.522 89.6349 167.568C89.6103 167.614 89.5951 167.665 89.5901 167.717C89.5852 167.769 89.5906 167.821 89.6061 167.871C89.6216 167.921 89.6468 167.968 89.6803 168.008L91.7918 170.558C91.8348 170.608 91.8896 170.647 91.9513 170.671C92.0131 170.696 92.0798 170.705 92.1458 170.697C92.2116 170.69 92.2746 170.667 92.3291 170.63C92.3835 170.592 92.4276 170.542 92.4573 170.483L95.0431 165.2C95.0889 165.107 95.096 165 95.0629 164.902C95.0297 164.803 94.959 164.722 94.8661 164.676C94.7721 164.63 94.6637 164.623 94.5644 164.656C94.4651 164.689 94.3827 164.759 94.3351 164.852" fill="black"/>
<path fill-rule="evenodd" clip-rule="evenodd" d="M201.165 56.7386L203.347 61.1768C203.377 61.2355 203.422 61.2859 203.476 61.3237C203.53 61.3615 203.593 61.3856 203.659 61.3938C203.725 61.4024 203.793 61.3938 203.855 61.3687C203.917 61.3437 203.971 61.3031 204.013 61.2509L205.789 59.1068C205.855 59.0263 205.887 58.9229 205.876 58.8193C205.866 58.7157 205.815 58.6204 205.734 58.5544C205.696 58.5213 205.651 58.4962 205.602 58.4804C205.554 58.4647 205.502 58.4586 205.452 58.4625C205.401 58.4664 205.351 58.4803 205.306 58.5034C205.26 58.5264 205.22 58.5581 205.187 58.5968L205.18 58.6038L203.789 60.2803L201.882 56.398C201.861 56.3494 201.831 56.3054 201.793 56.2687C201.754 56.232 201.709 56.2032 201.66 56.184C201.61 56.1649 201.558 56.1557 201.505 56.1571C201.452 56.1585 201.399 56.1705 201.351 56.1922C201.303 56.214 201.259 56.2451 201.223 56.2838C201.187 56.3225 201.159 56.368 201.141 56.4177C201.122 56.4673 201.114 56.5201 201.117 56.5729C201.119 56.6257 201.132 56.6775 201.155 56.7253L201.164 56.7456" fill="#F96D52"/>
<path fill-rule="evenodd" clip-rule="evenodd" d="M240.275 124.866C240.196 124.571 240.06 124.295 239.874 124.053C239.688 123.811 239.456 123.608 239.191 123.455C238.926 123.303 238.634 123.204 238.331 123.164C238.027 123.124 237.719 123.144 237.424 123.223H237.419L217.385 128.574C217.089 128.653 216.812 128.789 216.569 128.975C216.327 129.161 216.123 129.392 215.97 129.656C215.817 129.921 215.718 130.212 215.678 130.515C215.638 130.817 215.658 131.124 215.737 131.419L218.931 143.306C219.092 143.901 219.482 144.408 220.018 144.716C220.553 145.024 221.189 145.108 221.786 144.949C226.459 143.7 237.15 140.844 241.819 139.595C242.115 139.516 242.392 139.38 242.635 139.195C242.878 139.009 243.082 138.778 243.235 138.514C243.388 138.25 243.487 137.959 243.528 137.656C243.568 137.354 243.548 137.047 243.469 136.752C242.629 133.623 241.115 127.992 240.275 124.862" fill="black"/>
<path fill-rule="evenodd" clip-rule="evenodd" d="M215.695 129.821C215.695 129.821 224.381 133.325 228.092 134.819C228.646 135.044 229.258 135.082 229.836 134.927C230.413 134.773 230.925 134.435 231.292 133.964C233.747 130.831 239.483 123.505 239.483 123.505C239.547 123.424 239.576 123.32 239.564 123.217C239.551 123.114 239.498 123.02 239.416 122.956C239.333 122.891 239.227 122.862 239.123 122.875C239.018 122.887 238.922 122.941 238.856 123.023L230.67 133.479C230.409 133.814 230.045 134.055 229.633 134.165C229.222 134.274 228.786 134.247 228.392 134.087L215.998 129.089C215.9 129.05 215.792 129.052 215.695 129.092C215.598 129.133 215.522 129.21 215.482 129.307C215.462 129.354 215.452 129.406 215.452 129.457C215.452 129.509 215.463 129.56 215.482 129.607C215.502 129.655 215.531 129.698 215.568 129.735C215.605 129.771 215.648 129.8 215.696 129.819H215.7" fill="white"/>
<path fill-rule="evenodd" clip-rule="evenodd" d="M145.407 80.06C145.407 80.06 146.455 86.0732 147.641 88.7441C147.641 88.7441 145.706 94.6559 149.79 93.4303C149.79 93.4303 153.107 102.854 161.952 98.4403L163.517 103.101L180.37 100.101L176.605 90.8891L168.085 75.9262L145.407 80.06Z" fill="white"/>
<path fill-rule="evenodd" clip-rule="evenodd" d="M145.328 79.6691C145.225 79.6899 145.135 79.7494 145.076 79.8352C145.017 79.9209 144.994 80.0262 145.011 80.1288C145.011 80.1288 146.049 86.0062 147.223 88.7706C146.953 89.6738 146.808 90.6095 146.791 91.5518C146.721 91.9138 146.747 92.288 146.869 92.6363C146.991 92.9846 147.203 93.2944 147.484 93.5341C147.765 93.7737 148.105 93.9346 148.469 94.0002C148.833 94.0658 149.208 94.0339 149.556 93.9077C150.032 95.0221 151.8 98.5841 155.308 99.6827C157.454 100.281 159.747 100.034 161.715 98.9935L163.141 103.229C163.172 103.319 163.234 103.396 163.316 103.444C163.398 103.493 163.495 103.51 163.59 103.494L180.443 100.483C180.502 100.474 180.558 100.451 180.607 100.417C180.655 100.384 180.696 100.339 180.725 100.287C180.752 100.235 180.767 100.177 180.77 100.119C180.773 100.06 180.764 100.001 180.743 99.9465L176.975 90.7347C176.966 90.7216 176.957 90.7074 176.951 90.6924L168.431 75.7312C168.391 75.6602 168.329 75.6034 168.255 75.5684C168.181 75.5334 168.098 75.5218 168.017 75.5353L145.328 79.6691ZM145.865 80.375L167.882 76.3691C167.882 76.3691 175.881 90.4285 176.244 91.0585L179.815 99.7938L163.785 102.651L162.333 98.3132C162.315 98.2593 162.285 98.2099 162.245 98.1688C162.206 98.1276 162.158 98.0956 162.105 98.075C162.053 98.0533 161.997 98.0428 161.94 98.0443C161.884 98.0459 161.829 98.0593 161.778 98.0838C159.244 99.3509 157.183 99.4444 155.547 98.9256C151.71 97.7265 150.17 93.3032 150.17 93.3032C150.137 93.2056 150.067 93.125 149.975 93.0789C149.882 93.0327 149.775 93.0249 149.677 93.0571C149.444 93.1557 149.193 93.2072 148.939 93.2087C148.685 93.2102 148.433 93.1617 148.199 93.0659C147.973 92.8865 147.797 92.6523 147.689 92.3857C147.581 92.1191 147.543 91.8292 147.579 91.5438C147.601 90.6344 147.75 89.7325 148.022 88.8641C148.052 88.7725 148.049 88.6728 148.012 88.5835C147.053 85.9175 146.334 83.1712 145.865 80.3777" fill="black"/>
<path fill-rule="evenodd" clip-rule="evenodd" d="M167.392 80.855C165.853 81.7496 164.494 82.9233 163.387 84.3156C163.321 84.3975 163.29 84.5022 163.302 84.6067C163.313 84.7112 163.366 84.8069 163.448 84.8728C163.53 84.9387 163.635 84.9693 163.74 84.958C163.844 84.9466 163.94 84.8943 164.007 84.8124C165.046 83.503 166.323 82.3993 167.77 81.5582C167.862 81.5098 167.932 81.427 167.963 81.3279C167.995 81.2288 167.986 81.1214 167.938 81.0288C167.889 80.9355 167.804 80.8656 167.703 80.8342C167.601 80.8028 167.492 80.8125 167.398 80.8612" fill="black"/>
<path fill-rule="evenodd" clip-rule="evenodd" d="M167.349 83.885C166.643 83.4519 165.898 83.0873 165.122 82.7962C165.072 82.7798 165.02 82.7732 164.968 82.7769C164.916 82.7806 164.866 82.7945 164.819 82.8178C164.773 82.8411 164.731 82.8733 164.697 82.9126C164.663 82.9519 164.637 82.9975 164.621 83.0468V83.0521C164.59 83.1525 164.6 83.2611 164.648 83.3544C164.697 83.4477 164.78 83.5182 164.88 83.5506C165.595 83.8189 166.282 84.1567 166.931 84.5591C166.975 84.5867 167.024 84.6052 167.076 84.6137C167.127 84.6222 167.18 84.6205 167.231 84.6087C167.282 84.5969 167.33 84.5753 167.372 84.5449C167.415 84.5146 167.451 84.4763 167.479 84.4321C167.506 84.3879 167.525 84.3387 167.533 84.2873C167.542 84.2359 167.54 84.1834 167.528 84.1327C167.516 84.082 167.495 84.0341 167.464 83.9917C167.434 83.9494 167.395 83.9134 167.351 83.8859" fill="black"/>
<path fill-rule="evenodd" clip-rule="evenodd" d="M161.75 81.0297C162.013 82.5314 162.11 84.0573 162.04 85.58C162.037 85.6163 162.024 85.6511 162.003 85.681C161.982 85.7109 161.954 85.7348 161.921 85.7503C161.887 85.7659 161.85 85.771 161.813 85.7648C161.776 85.7587 161.743 85.7416 161.716 85.7159C160.483 84.4966 159.439 83.1006 158.618 81.5741C158.618 81.5741 150.053 82.7988 145.514 80.4853L145.805 81.9147C144.718 81.2897 143.858 80.3374 143.347 79.1944C142.837 78.0515 142.702 76.7767 142.964 75.553L141.249 77.3556C141.249 77.3556 142.613 60.7868 158.618 57.5715C171.485 54.995 176.813 62.885 176.813 62.885C176.813 62.885 186.883 67.7282 183.739 77.9009C181.043 86.6194 179.773 87.9456 177.544 92.93L175.41 93.3385L168.349 86.2532C169.182 85.5646 169.723 84.5875 169.863 83.518C170.004 82.4484 169.734 81.3654 169.107 80.4862C167.921 78.5891 164.338 77.8241 161.746 81.0306" fill="black"/>
<path fill-rule="evenodd" clip-rule="evenodd" d="M149.036 83.5744C149.656 82.9233 150.438 82.4465 151.301 82.1918C151.401 82.1576 151.483 82.0858 151.529 81.9918C151.576 81.8978 151.584 81.7893 151.551 81.6897C151.535 81.6409 151.509 81.5958 151.475 81.5568C151.442 81.5179 151.401 81.486 151.355 81.4629C151.309 81.4397 151.259 81.4259 151.207 81.4221C151.156 81.4184 151.104 81.4247 151.055 81.4409H151.048C150.041 81.7392 149.133 82.3039 148.422 83.075C148.356 83.1574 148.325 83.2625 148.336 83.3673C148.348 83.4721 148.4 83.5682 148.483 83.6344C148.523 83.6665 148.569 83.6904 148.619 83.7047C148.668 83.7189 148.72 83.7233 148.772 83.7176C148.823 83.7118 148.873 83.6961 148.918 83.6712C148.963 83.6464 149.003 83.6129 149.035 83.5727" fill="black"/>
<path fill-rule="evenodd" clip-rule="evenodd" d="M157.414 91.1724C157.293 92.0348 156.867 92.8256 156.211 93.4014C155.556 93.9772 154.716 94.2998 153.842 94.3109C153.74 94.322 153.645 94.3708 153.576 94.4477C153.507 94.5246 153.469 94.6243 153.47 94.7274C153.473 94.83 153.518 94.9271 153.593 94.9972C153.668 95.0673 153.769 95.1048 153.872 95.1015H153.894C154.955 95.0836 155.974 94.6861 156.765 93.9815C157.557 93.277 158.068 92.3123 158.206 91.2632C158.216 91.1583 158.184 91.0537 158.118 90.9714C158.052 90.8891 157.957 90.8356 157.852 90.8221C157.748 90.8122 157.643 90.8436 157.562 90.9096C157.48 90.9757 157.428 91.071 157.417 91.175" fill="black"/>
<path d="M151.194 86.9318C151.415 86.9019 151.621 86.8075 151.788 86.6607C151.954 86.5138 152.074 86.3209 152.13 86.1065C152.187 85.8921 152.179 85.6658 152.106 85.4561C152.034 85.2464 151.901 85.0628 151.724 84.9284C151.547 84.7941 151.335 84.715 151.113 84.7012C150.891 84.6875 150.67 84.7396 150.477 84.8511C150.285 84.9626 150.13 85.1284 150.032 85.3275C149.935 85.5267 149.898 85.7503 149.928 85.97C149.948 86.1161 149.996 86.2569 150.07 86.3844C150.145 86.5118 150.244 86.6234 150.361 86.7127C150.479 86.802 150.613 86.8674 150.756 86.9049C150.899 86.9425 151.048 86.9517 151.194 86.9318Z" fill="black"/>
<path fill-rule="evenodd" clip-rule="evenodd" d="M157.391 195.108L153.184 140.881V115.702L181.207 111.96L199.018 119.47C202.235 119.793 212.66 160.1 216.318 195.108H157.391Z" fill="white"/>
<path fill-rule="evenodd" clip-rule="evenodd" d="M156.99 195.135C157 195.234 157.046 195.326 157.12 195.394C157.194 195.461 157.291 195.499 157.391 195.5H216.319C216.375 195.501 216.431 195.49 216.482 195.468C216.533 195.446 216.58 195.414 216.617 195.373C216.655 195.332 216.684 195.283 216.702 195.23C216.719 195.177 216.726 195.121 216.72 195.066C213.787 167.016 206.508 135.579 202.073 123.961C201.57 122.452 200.864 121.018 199.974 119.699C199.771 119.404 199.473 119.188 199.13 119.086L181.36 111.593C181.295 111.567 181.225 111.558 181.156 111.567L153.133 115.309C153.037 115.321 152.948 115.367 152.883 115.439C152.818 115.511 152.781 115.604 152.779 115.701V140.878C152.779 140.887 152.783 140.896 152.789 140.903L156.99 195.135ZM157.757 194.709C157.391 190.022 153.654 141.84 153.585 140.862V116.05C156.665 115.634 179.4 112.598 181.157 112.368C182.58 112.972 198.856 119.828 198.856 119.828C198.894 119.843 198.934 119.854 198.975 119.86C199.048 119.885 199.113 119.929 199.162 119.988C199.324 120.144 199.467 120.318 199.588 120.507C200.29 121.692 200.872 122.944 201.328 124.243C205.731 135.767 212.921 166.854 215.88 194.709L157.757 194.709Z" fill="black"/>
<path fill-rule="evenodd" clip-rule="evenodd" d="M155.164 109.348C155.123 108.08 155.398 106.823 155.962 105.686C156.526 104.55 157.363 103.569 158.398 102.833C161.938 100.442 183.751 94.2933 193.611 98.0018C197.304 99.388 198.141 102.952 199.524 108.132C200.249 110.862 199.779 111.721 201.913 115.608C204.048 119.495 200.651 122.915 196.214 122.897C186.961 122.772 177.794 121.114 169.087 117.99C157.801 113.746 155.387 115.821 152.871 117.114C152.871 117.114 151.037 111.704 155.165 109.349" fill="#F96D52"/>
<path fill-rule="evenodd" clip-rule="evenodd" d="M156.869 109.505C158.768 109.098 160.727 109.05 162.645 109.362C162.746 109.384 162.852 109.366 162.94 109.311C163.028 109.256 163.09 109.168 163.113 109.067C163.139 108.969 163.125 108.864 163.074 108.776C163.023 108.688 162.939 108.624 162.84 108.597L162.816 108.592C160.785 108.258 158.71 108.303 156.696 108.725C156.594 108.75 156.507 108.814 156.451 108.903C156.396 108.992 156.378 109.099 156.401 109.201C156.421 109.302 156.481 109.391 156.567 109.448C156.654 109.506 156.759 109.527 156.861 109.507H156.869" fill="black"/>
<path fill-rule="evenodd" clip-rule="evenodd" d="M198.879 112.186C198.879 112.186 194.675 114.457 184.618 112.156C184.568 112.144 184.517 112.141 184.467 112.148C184.417 112.155 184.368 112.172 184.324 112.197C184.281 112.223 184.242 112.257 184.212 112.297C184.181 112.338 184.159 112.384 184.146 112.433L184.142 112.451C184.119 112.553 184.137 112.66 184.192 112.749C184.247 112.838 184.335 112.901 184.437 112.926C194.894 115.308 199.26 112.878 199.26 112.878C199.346 112.825 199.408 112.74 199.433 112.642C199.459 112.545 199.446 112.441 199.397 112.352C199.348 112.264 199.268 112.197 199.171 112.166C199.075 112.135 198.97 112.142 198.879 112.186Z" fill="black"/>
<path fill-rule="evenodd" clip-rule="evenodd" d="M43.4847 195.503H250.615C250.72 195.503 250.822 195.461 250.896 195.386C250.971 195.312 251.013 195.211 251.013 195.106C251.013 195 250.971 194.899 250.896 194.825C250.822 194.75 250.72 194.709 250.615 194.709H43.4847C43.379 194.709 43.2777 194.75 43.2031 194.825C43.1284 194.899 43.0864 195 43.0864 195.106C43.0864 195.211 43.1284 195.312 43.2031 195.386C43.2777 195.461 43.379 195.503 43.4847 195.503Z" fill="black"/>
<path fill-rule="evenodd" clip-rule="evenodd" d="M120.783 117.031C120.009 115.387 119.404 113.669 118.978 111.902C118.633 110.072 117.8 108.367 116.567 106.968C115.709 106.113 114.28 106.968 114.28 106.968C114.28 106.968 109.93 101.09 108.108 98.623C107.896 98.3412 107.582 98.1534 107.233 98.1002C106.884 98.0469 106.528 98.1322 106.241 98.338C105.95 98.5542 105.749 98.8707 105.678 99.2261C105.607 99.5814 105.671 99.9504 105.857 100.261C107.295 102.657 110.529 108.01 110.529 108.01C109.984 108.209 109.483 108.513 109.057 108.906C108.631 109.299 108.287 109.773 108.046 110.299C108.046 110.299 106.108 111.315 106.01 113.131C105.621 113.556 105.341 114.069 105.194 114.626C105.048 115.183 105.04 115.767 105.171 116.328C105.613 118.269 108.047 119.935 109.414 120.747C110.413 121.418 111.307 122.231 112.069 123.161L116.24 121.914L120.783 117.031Z" fill="white"/>
<path fill-rule="evenodd" clip-rule="evenodd" d="M121.071 117.299C121.127 117.243 121.164 117.17 121.176 117.092C121.189 117.014 121.177 116.934 121.142 116.863C120.381 115.253 119.788 113.57 119.372 111.839C119.011 109.924 118.137 108.143 116.844 106.682C116.649 106.493 116.413 106.352 116.155 106.268C115.896 106.185 115.622 106.162 115.353 106.201C115.026 106.24 114.707 106.327 114.406 106.46L108.421 98.3909C108.152 98.0241 107.749 97.7787 107.299 97.7087C106.849 97.6387 106.389 97.7499 106.021 98.0177L106.01 98.0256C105.636 98.2975 105.379 98.6989 105.288 99.1507C105.197 99.6025 105.279 100.072 105.518 100.466L109.958 107.832C108.981 108.281 108.192 109.056 107.726 110.023C107.184 110.334 106.716 110.758 106.352 111.265C105.988 111.772 105.738 112.35 105.618 112.962C105.22 113.435 104.938 113.993 104.794 114.593C104.65 115.192 104.647 115.817 104.787 116.418C105.036 117.307 105.517 118.115 106.18 118.759C107.083 119.666 108.101 120.45 109.209 121.093C110.171 121.734 111.033 122.514 111.764 123.409C111.813 123.47 111.879 123.516 111.953 123.539C112.028 123.563 112.108 123.565 112.184 123.543L116.356 122.296C116.421 122.273 116.481 122.237 116.533 122.19L121.071 117.299ZM120.311 116.946L116.026 121.561L112.212 122.701C111.46 121.821 110.588 121.049 109.622 120.407C108.575 119.804 107.611 119.067 106.755 118.216C106.193 117.672 105.783 116.991 105.567 116.24C105.452 115.745 105.458 115.229 105.584 114.736C105.71 114.243 105.952 113.788 106.291 113.408C106.359 113.338 106.4 113.246 106.407 113.149C106.496 112.619 106.707 112.116 107.025 111.682C107.343 111.247 107.758 110.893 108.238 110.647C108.283 110.625 108.323 110.594 108.356 110.556C108.388 110.517 108.412 110.473 108.426 110.424C108.643 109.954 108.953 109.531 109.336 109.181C109.719 108.831 110.169 108.56 110.658 108.385C110.714 108.365 110.764 108.334 110.806 108.292C110.848 108.251 110.88 108.201 110.9 108.145C110.923 108.091 110.932 108.032 110.927 107.973C110.923 107.914 110.904 107.857 110.873 107.806L106.202 100.058C106.065 99.832 106.017 99.5636 106.069 99.305C106.12 99.0463 106.266 98.816 106.479 98.6591C106.68 98.5135 106.93 98.4524 107.175 98.4891C107.421 98.5257 107.643 98.6571 107.792 98.855L113.964 107.2C114.023 107.282 114.11 107.339 114.209 107.359C114.307 107.379 114.41 107.36 114.495 107.307C114.787 107.139 115.109 107.031 115.442 106.987C115.594 106.962 115.75 106.972 115.897 107.017C116.044 107.062 116.179 107.139 116.291 107.244C117.47 108.583 118.265 110.214 118.592 111.965C118.992 113.682 119.57 115.354 120.316 116.952" fill="black"/>
<path fill-rule="evenodd" clip-rule="evenodd" d="M125.247 120.44C125.778 120.435 126.304 120.541 126.792 120.751C127.28 120.96 127.718 121.269 128.079 121.657C130.528 123.996 135.441 129.226 143.417 139.969C143.417 139.969 148.825 121.606 152.758 117.293C156.691 112.98 172.131 119.207 168.293 135.999C164.454 152.79 158.148 168.285 147.546 168.532C136.943 168.779 129.503 158.93 121.75 148.032C113.997 137.134 112.759 130.638 113.535 128.402C113.563 128.315 113.597 128.23 113.638 128.148C113.424 127.714 112.691 126.549 112.085 125.413C111.815 124.898 111.715 124.311 111.798 123.736C111.881 123.16 112.143 122.625 112.547 122.206C114.774 119.937 117.434 118.132 120.369 116.899C120.761 116.737 121.194 116.704 121.606 116.803C122.018 116.902 122.389 117.129 122.663 117.451C123.704 118.651 125.248 120.447 125.248 120.447" fill="white"/>
<path fill-rule="evenodd" clip-rule="evenodd" d="M125.435 120.048C125.06 119.614 123.842 118.186 122.957 117.183C122.626 116.802 122.183 116.534 121.691 116.416C121.199 116.298 120.683 116.337 120.214 116.527C117.227 117.782 114.521 119.619 112.254 121.929C111.792 122.405 111.492 123.016 111.399 123.673C111.305 124.33 111.423 124.999 111.734 125.586C112.271 126.615 112.92 127.653 113.201 128.162C113.176 128.231 113.159 128.266 113.159 128.274C112.835 129.219 112.826 130.869 113.475 133.25C114.413 136.678 116.733 141.669 121.425 148.261C125.319 153.738 129.137 158.943 133.308 162.755C137.539 166.614 142.147 169.048 147.556 168.931C151.916 168.83 155.585 166.244 158.647 162.042C163.151 155.885 166.376 146.222 168.687 136.092C171.431 124.04 164.457 117.321 158.673 115.886C156.087 115.24 153.724 115.657 152.462 117.033C151.269 118.342 149.92 120.945 148.64 123.939C146.209 129.639 143.965 136.792 143.266 139.104C135.546 128.762 130.77 123.676 128.354 121.38C127.979 120.978 127.528 120.654 127.027 120.427C126.526 120.2 125.984 120.074 125.434 120.056M124.948 120.703C124.984 120.745 125.029 120.779 125.079 120.802C125.129 120.825 125.183 120.838 125.239 120.839C125.72 120.838 126.197 120.937 126.639 121.129C127.08 121.321 127.477 121.602 127.805 121.954C130.245 124.284 135.141 129.507 143.092 140.219C143.137 140.278 143.197 140.323 143.267 140.35C143.336 140.377 143.411 140.384 143.485 140.371C143.557 140.358 143.624 140.324 143.678 140.275C143.732 140.225 143.771 140.161 143.791 140.09C143.791 140.09 146.436 131.117 149.371 124.262C150.61 121.363 151.886 118.844 153.047 117.578C154.147 116.369 156.219 116.097 158.471 116.659C163.983 118.027 170.526 124.457 167.908 135.924C165.621 145.943 162.455 155.494 158.003 161.592C155.102 165.563 151.655 168.047 147.527 168.149C142.332 168.27 137.913 165.895 133.844 162.179C129.707 158.401 125.928 153.239 122.074 147.812C117.459 141.332 115.164 136.424 114.243 133.048C113.646 130.896 113.612 129.389 113.91 128.54C113.936 128.461 113.967 128.385 114.004 128.311C114.044 128.206 114.041 128.09 113.995 127.988C113.782 127.546 113.048 126.379 112.434 125.231C112.205 124.791 112.12 124.291 112.19 123.801C112.261 123.31 112.483 122.854 112.827 122.496C115.017 120.261 117.633 118.485 120.522 117.274C120.836 117.145 121.184 117.119 121.514 117.198C121.845 117.277 122.142 117.458 122.364 117.715C123.405 118.914 124.949 120.708 124.949 120.708" fill="black"/>
<path fill-rule="evenodd" clip-rule="evenodd" d="M143.077 140.168C145.073 143.733 146.528 147.573 147.396 151.563C147.406 151.614 147.426 151.662 147.455 151.705C147.483 151.748 147.52 151.785 147.563 151.814C147.606 151.842 147.655 151.862 147.705 151.872C147.756 151.882 147.808 151.883 147.859 151.873C147.91 151.863 147.958 151.843 148.001 151.814C148.044 151.785 148.081 151.749 148.11 151.706C148.139 151.663 148.159 151.615 148.169 151.564C148.179 151.513 148.179 151.461 148.169 151.411C147.289 147.332 145.805 143.406 143.765 139.764C143.739 139.719 143.704 139.679 143.662 139.648C143.62 139.616 143.573 139.593 143.523 139.58C143.421 139.553 143.312 139.568 143.221 139.621C143.13 139.674 143.064 139.761 143.037 139.863C143.01 139.964 143.025 140.072 143.078 140.163" fill="black"/>
<path fill-rule="evenodd" clip-rule="evenodd" d="M115.582 127.536C115.582 127.536 120.425 122.888 123.635 121.908C123.736 121.878 123.82 121.809 123.87 121.716C123.92 121.624 123.931 121.516 123.901 121.415C123.869 121.315 123.799 121.232 123.707 121.182C123.614 121.133 123.506 121.122 123.405 121.15C120.069 122.166 115.025 126.967 115.025 126.967C114.951 127.04 114.908 127.14 114.906 127.245C114.904 127.35 114.944 127.451 115.016 127.527C115.052 127.565 115.094 127.595 115.142 127.616C115.189 127.637 115.241 127.648 115.293 127.649C115.345 127.65 115.396 127.641 115.445 127.623C115.493 127.604 115.537 127.576 115.575 127.54" fill="black"/>
</g>
<defs>
<clipPath id="clip0_162_754">
<rect width="300" height="195" fill="white" transform="translate(0 0.5)"/>
</clipPath>
</defs>
</svg>
